# Tiled2Unity generated file. Do not modify by hand.
# Wavefront file for 'Map_first_mesh_0007.obj'

# Vertices (Count = 416)
v 0 -0.32 0
v -0.32 -0.32 0
v -0.32 0 0
v 0 0 0
v -9.92 -0.32 0
v -10.24 -0.32 0
v -10.24 0 0
v -9.92 0 0
v 0 -0.64 0
v -0.32 -0.64 0
v -0.32 -0.32 0
v 0 -0.32 0
v -0.32 -0.64 0
v -0.64 -0.64 0
v -0.64 -0.32 0
v -0.32 -0.32 0
v -0.64 -0.64 0
v -0.96 -0.64 0
v -0.96 -0.32 0
v -0.64 -0.32 0
v -0.96 -0.64 0
v -1.28 -0.64 0
v -1.28 -0.32 0
v -0.96 -0.32 0
v -1.28 -0.64 0
v -1.6 -0.64 0
v -1.6 -0.32 0
v -1.28 -0.32 0
v -1.6 -0.64 0
v -1.92 -0.64 0
v -1.92 -0.32 0
v -1.6 -0.32 0
v -1.92 -0.64 0
v -2.24 -0.64 0
v -2.24 -0.32 0
v -1.92 -0.32 0
v -2.24 -0.64 0
v -2.56 -0.64 0
v -2.56 -0.32 0
v -2.24 -0.32 0
v -2.56 -0.64 0
v -2.88 -0.64 0
v -2.88 -0.32 0
v -2.56 -0.32 0
v -2.88 -0.64 0
v -3.2 -0.64 0
v -3.2 -0.32 0
v -2.88 -0.32 0
v -3.2 -0.64 0
v -3.52 -0.64 0
v -3.52 -0.32 0
v -3.2 -0.32 0
v -3.52 -0.64 0
v -3.84 -0.64 0
v -3.84 -0.32 0
v -3.52 -0.32 0
v -3.84 -0.64 0
v -4.16 -0.64 0
v -4.16 -0.32 0
v -3.84 -0.32 0
v -4.16 -0.64 0
v -4.48 -0.64 0
v -4.48 -0.32 0
v -4.16 -0.32 0
v -4.48 -0.64 0
v -4.8 -0.64 0
v -4.8 -0.32 0
v -4.48 -0.32 0
v -4.8 -0.64 0
v -5.12 -0.64 0
v -5.12 -0.32 0
v -4.8 -0.32 0
v -5.12 -0.64 0
v -5.44 -0.64 0
v -5.44 -0.32 0
v -5.12 -0.32 0
v -5.44 -0.64 0
v -5.76 -0.64 0
v -5.76 -0.32 0
v -5.44 -0.32 0
v -5.76 -0.64 0
v -6.08 -0.64 0
v -6.08 -0.32 0
v -5.76 -0.32 0
v -6.08 -0.64 0
v -6.4 -0.64 0
v -6.4 -0.32 0
v -6.08 -0.32 0
v -6.4 -0.64 0
v -6.72 -0.64 0
v -6.72 -0.32 0
v -6.4 -0.32 0
v -6.72 -0.64 0
v -7.04 -0.64 0
v -7.04 -0.32 0
v -6.72 -0.32 0
v -7.04 -0.64 0
v -7.36 -0.64 0
v -7.36 -0.32 0
v -7.04 -0.32 0
v -7.36 -0.64 0
v -7.68 -0.64 0
v -7.68 -0.32 0
v -7.36 -0.32 0
v -7.68 -0.64 0
v -8 -0.64 0
v -8 -0.32 0
v -7.68 -0.32 0
v -8 -0.64 0
v -8.32 -0.64 0
v -8.32 -0.32 0
v -8 -0.32 0
v -8.32 -0.64 0
v -8.639999 -0.64 0
v -8.639999 -0.32 0
v -8.32 -0.32 0
v -8.639999 -0.64 0
v -8.96 -0.64 0
v -8.96 -0.32 0
v -8.639999 -0.32 0
v -8.96 -0.64 0
v -9.28 -0.64 0
v -9.28 -0.32 0
v -8.96 -0.32 0
v -9.28 -0.64 0
v -9.599999 -0.64 0
v -9.599999 -0.32 0
v -9.28 -0.32 0
v -9.599999 -0.64 0
v -9.92 -0.64 0
v -9.92 -0.32 0
v -9.599999 -0.32 0
v -9.92 -0.64 0
v -10.24 -0.64 0
v -10.24 -0.32 0
v -9.92 -0.32 0
v 0 -0.96 0
v -0.32 -0.96 0
v -0.32 -0.64 0
v 0 -0.64 0
v -0.32 -0.96 0
v -0.64 -0.96 0
v -0.64 -0.64 0
v -0.32 -0.64 0
v -0.64 -0.96 0
v -0.96 -0.96 0
v -0.96 -0.64 0
v -0.64 -0.64 0
v -0.96 -0.96 0
v -1.28 -0.96 0
v -1.28 -0.64 0
v -0.96 -0.64 0
v -1.28 -0.96 0
v -1.6 -0.96 0
v -1.6 -0.64 0
v -1.28 -0.64 0
v -1.6 -0.96 0
v -1.92 -0.96 0
v -1.92 -0.64 0
v -1.6 -0.64 0
v -1.92 -0.96 0
v -2.24 -0.96 0
v -2.24 -0.64 0
v -1.92 -0.64 0
v -2.24 -0.96 0
v -2.56 -0.96 0
v -2.56 -0.64 0
v -2.24 -0.64 0
v -2.56 -0.96 0
v -2.88 -0.96 0
v -2.88 -0.64 0
v -2.56 -0.64 0
v -2.88 -0.96 0
v -3.2 -0.96 0
v -3.2 -0.64 0
v -2.88 -0.64 0
v -3.2 -0.96 0
v -3.52 -0.96 0
v -3.52 -0.64 0
v -3.2 -0.64 0
v -3.52 -0.96 0
v -3.84 -0.96 0
v -3.84 -0.64 0
v -3.52 -0.64 0
v -3.84 -0.96 0
v -4.16 -0.96 0
v -4.16 -0.64 0
v -3.84 -0.64 0
v -4.16 -0.96 0
v -4.48 -0.96 0
v -4.48 -0.64 0
v -4.16 -0.64 0
v -4.48 -0.96 0
v -4.8 -0.96 0
v -4.8 -0.64 0
v -4.48 -0.64 0
v -4.8 -0.96 0
v -5.12 -0.96 0
v -5.12 -0.64 0
v -4.8 -0.64 0
v -5.12 -0.96 0
v -5.44 -0.96 0
v -5.44 -0.64 0
v -5.12 -0.64 0
v -5.44 -0.96 0
v -5.76 -0.96 0
v -5.76 -0.64 0
v -5.44 -0.64 0
v -5.76 -0.96 0
v -6.08 -0.96 0
v -6.08 -0.64 0
v -5.76 -0.64 0
v -6.08 -0.96 0
v -6.4 -0.96 0
v -6.4 -0.64 0
v -6.08 -0.64 0
v -6.4 -0.96 0
v -6.72 -0.96 0
v -6.72 -0.64 0
v -6.4 -0.64 0
v -6.72 -0.96 0
v -7.04 -0.96 0
v -7.04 -0.64 0
v -6.72 -0.64 0
v -7.04 -0.96 0
v -7.36 -0.96 0
v -7.36 -0.64 0
v -7.04 -0.64 0
v -7.36 -0.96 0
v -7.68 -0.96 0
v -7.68 -0.64 0
v -7.36 -0.64 0
v -7.68 -0.96 0
v -8 -0.96 0
v -8 -0.64 0
v -7.68 -0.64 0
v -8 -0.96 0
v -8.32 -0.96 0
v -8.32 -0.64 0
v -8 -0.64 0
v -8.32 -0.96 0
v -8.639999 -0.96 0
v -8.639999 -0.64 0
v -8.32 -0.64 0
v -8.639999 -0.96 0
v -8.96 -0.96 0
v -8.96 -0.64 0
v -8.639999 -0.64 0
v -8.96 -0.96 0
v -9.28 -0.96 0
v -9.28 -0.64 0
v -8.96 -0.64 0
v -9.28 -0.96 0
v -9.599999 -0.96 0
v -9.599999 -0.64 0
v -9.28 -0.64 0
v -9.599999 -0.96 0
v -9.92 -0.96 0
v -9.92 -0.64 0
v -9.599999 -0.64 0
v -9.92 -0.96 0
v -10.24 -0.96 0
v -10.24 -0.64 0
v -9.92 -0.64 0
v 0 -1.28 0
v -0.32 -1.28 0
v -0.32 -0.96 0
v 0 -0.96 0
v -9.92 -1.28 0
v -10.24 -1.28 0
v -10.24 -0.96 0
v -9.92 -0.96 0
v 0 -1.6 0
v -0.32 -1.6 0
v -0.32 -1.28 0
v 0 -1.28 0
v -9.92 -1.6 0
v -10.24 -1.6 0
v -10.24 -1.28 0
v -9.92 -1.28 0
v 0 -1.92 0
v -0.32 -1.92 0
v -0.32 -1.6 0
v 0 -1.6 0
v -9.92 -1.92 0
v -10.24 -1.92 0
v -10.24 -1.6 0
v -9.92 -1.6 0
v 0 -2.24 0
v -0.32 -2.24 0
v -0.32 -1.92 0
v 0 -1.92 0
v -9.92 -2.24 0
v -10.24 -2.24 0
v -10.24 -1.92 0
v -9.92 -1.92 0
v 0 -2.56 0
v -0.32 -2.56 0
v -0.32 -2.24 0
v 0 -2.24 0
v -9.92 -2.56 0
v -10.24 -2.56 0
v -10.24 -2.24 0
v -9.92 -2.24 0
v 0 -2.88 0
v -0.32 -2.88 0
v -0.32 -2.56 0
v 0 -2.56 0
v -9.92 -2.88 0
v -10.24 -2.88 0
v -10.24 -2.56 0
v -9.92 -2.56 0
v 0 -3.2 0
v -0.32 -3.2 0
v -0.32 -2.88 0
v 0 -2.88 0
v -9.92 -3.2 0
v -10.24 -3.2 0
v -10.24 -2.88 0
v -9.92 -2.88 0
v 0 -3.84 0
v -0.32 -3.84 0
v -0.32 -3.52 0
v 0 -3.52 0
v -9.92 -3.84 0
v -10.24 -3.84 0
v -10.24 -3.52 0
v -9.92 -3.52 0
v 0 -4.16 0
v -0.32 -4.16 0
v -0.32 -3.84 0
v 0 -3.84 0
v -9.92 -4.16 0
v -10.24 -4.16 0
v -10.24 -3.84 0
v -9.92 -3.84 0
v 0 -4.48 0
v -0.32 -4.48 0
v -0.32 -4.16 0
v 0 -4.16 0
v -9.92 -4.48 0
v -10.24 -4.48 0
v -10.24 -4.16 0
v -9.92 -4.16 0
v 0 -4.8 0
v -0.32 -4.8 0
v -0.32 -4.48 0
v 0 -4.48 0
v -9.92 -4.8 0
v -10.24 -4.8 0
v -10.24 -4.48 0
v -9.92 -4.48 0
v 0 -5.12 0
v -0.32 -5.12 0
v -0.32 -4.8 0
v 0 -4.8 0
v -9.92 -5.12 0
v -10.24 -5.12 0
v -10.24 -4.8 0
v -9.92 -4.8 0
v 0 -5.44 0
v -0.32 -5.44 0
v -0.32 -5.12 0
v 0 -5.12 0
v -9.92 -5.44 0
v -10.24 -5.44 0
v -10.24 -5.12 0
v -9.92 -5.12 0
v 0 -5.76 0
v -0.32 -5.76 0
v -0.32 -5.44 0
v 0 -5.44 0
v -9.92 -5.76 0
v -10.24 -5.76 0
v -10.24 -5.44 0
v -9.92 -5.44 0
v 0 -6.08 0
v -0.32 -6.08 0
v -0.32 -5.76 0
v 0 -5.76 0
v -9.92 -6.08 0
v -10.24 -6.08 0
v -10.24 -5.76 0
v -9.92 -5.76 0
v 0 -6.4 0
v -0.32 -6.4 0
v -0.32 -6.08 0
v 0 -6.08 0
v -9.92 -6.4 0
v -10.24 -6.4 0
v -10.24 -6.08 0
v -9.92 -6.08 0
v 0 -6.72 0
v -0.32 -6.72 0
v -0.32 -6.4 0
v 0 -6.4 0
v -9.92 -6.72 0
v -10.24 -6.72 0
v -10.24 -6.4 0
v -9.92 -6.4 0
v 0 -7.04 0
v -0.32 -7.04 0
v -0.32 -6.72 0
v 0 -6.72 0
v -9.92 -7.04 0
v -10.24 -7.04 0
v -10.24 -6.72 0
v -9.92 -6.72 0
v 0 -7.36 0
v -0.32 -7.36 0
v -0.32 -7.04 0
v 0 -7.04 0
v -9.92 -7.36 0
v -10.24 -7.36 0
v -10.24 -7.04 0
v -9.92 -7.04 0

# Texture cooridinates (Count = 20)
vt 0 0.9473684
vt 0.125 0.9473684
vt 0.125 1
vt 0 1
vt 0.25 0.9473684
vt 0.375 0.9473684
vt 0.375 1
vt 0.25 1
vt 0.875 0.8947368
vt 1 0.8947368
vt 1 0.9473684
vt 0.875 0.9473684
vt 0.5 0.8421053
vt 0.625 0.8421053
vt 0.625 0.8947368
vt 0.5 0.8947368
vt 0.75 0.8947368
vt 0.75 0.9473684
vt 0.5 0.7894737
vt 0.625 0.7894737

# Normal
vn 0 0 -1

# Mesh description
g Map_first_mesh_0007

# Faces
f 1/1/1 2/2/1 3/3/1 4/4/1
f 5/5/1 6/6/1 7/7/1 8/8/1
f 9/9/1 10/10/1 11/11/1 12/12/1
f 13/13/1 14/14/1 15/15/1 16/16/1
f 17/13/1 18/14/1 19/15/1 20/16/1
f 21/13/1 22/14/1 23/15/1 24/16/1
f 25/13/1 26/14/1 27/15/1 28/16/1
f 29/13/1 30/14/1 31/15/1 32/16/1
f 33/13/1 34/14/1 35/15/1 36/16/1
f 37/13/1 38/14/1 39/15/1 40/16/1
f 41/13/1 42/14/1 43/15/1 44/16/1
f 45/13/1 46/14/1 47/15/1 48/16/1
f 49/13/1 50/14/1 51/15/1 52/16/1
f 53/13/1 54/14/1 55/15/1 56/16/1
f 57/13/1 58/14/1 59/15/1 60/16/1
f 61/13/1 62/14/1 63/15/1 64/16/1
f 65/13/1 66/14/1 67/15/1 68/16/1
f 69/13/1 70/14/1 71/15/1 72/16/1
f 73/13/1 74/14/1 75/15/1 76/16/1
f 77/13/1 78/14/1 79/15/1 80/16/1
f 81/13/1 82/14/1 83/15/1 84/16/1
f 85/13/1 86/14/1 87/15/1 88/16/1
f 89/13/1 90/14/1 91/15/1 92/16/1
f 93/13/1 94/14/1 95/15/1 96/16/1
f 97/13/1 98/14/1 99/15/1 100/16/1
f 101/13/1 102/14/1 103/15/1 104/16/1
f 105/13/1 106/14/1 107/15/1 108/16/1
f 109/13/1 110/14/1 111/15/1 112/16/1
f 113/13/1 114/14/1 115/15/1 116/16/1
f 117/13/1 118/14/1 119/15/1 120/16/1
f 121/13/1 122/14/1 123/15/1 124/16/1
f 125/13/1 126/14/1 127/15/1 128/16/1
f 129/13/1 130/14/1 131/15/1 132/16/1
f 133/17/1 134/9/1 135/12/1 136/18/1
f 137/9/1 138/10/1 139/11/1 140/12/1
f 141/19/1 142/20/1 143/14/1 144/13/1
f 145/19/1 146/20/1 147/14/1 148/13/1
f 149/19/1 150/20/1 151/14/1 152/13/1
f 153/19/1 154/20/1 155/14/1 156/13/1
f 157/19/1 158/20/1 159/14/1 160/13/1
f 161/19/1 162/20/1 163/14/1 164/13/1
f 165/19/1 166/20/1 167/14/1 168/13/1
f 169/19/1 170/20/1 171/14/1 172/13/1
f 173/19/1 174/20/1 175/14/1 176/13/1
f 177/19/1 178/20/1 179/14/1 180/13/1
f 181/19/1 182/20/1 183/14/1 184/13/1
f 185/19/1 186/20/1 187/14/1 188/13/1
f 189/19/1 190/20/1 191/14/1 192/13/1
f 193/19/1 194/20/1 195/14/1 196/13/1
f 197/19/1 198/20/1 199/14/1 200/13/1
f 201/19/1 202/20/1 203/14/1 204/13/1
f 205/19/1 206/20/1 207/14/1 208/13/1
f 209/19/1 210/20/1 211/14/1 212/13/1
f 213/19/1 214/20/1 215/14/1 216/13/1
f 217/19/1 218/20/1 219/14/1 220/13/1
f 221/19/1 222/20/1 223/14/1 224/13/1
f 225/19/1 226/20/1 227/14/1 228/13/1
f 229/19/1 230/20/1 231/14/1 232/13/1
f 233/19/1 234/20/1 235/14/1 236/13/1
f 237/19/1 238/20/1 239/14/1 240/13/1
f 241/19/1 242/20/1 243/14/1 244/13/1
f 245/19/1 246/20/1 247/14/1 248/13/1
f 249/19/1 250/20/1 251/14/1 252/13/1
f 253/19/1 254/20/1 255/14/1 256/13/1
f 257/19/1 258/20/1 259/14/1 260/13/1
f 261/17/1 262/9/1 263/12/1 264/18/1
f 265/9/1 266/10/1 267/11/1 268/12/1
f 269/17/1 270/9/1 271/12/1 272/18/1
f 273/9/1 274/10/1 275/11/1 276/12/1
f 277/17/1 278/9/1 279/12/1 280/18/1
f 281/9/1 282/10/1 283/11/1 284/12/1
f 285/17/1 286/9/1 287/12/1 288/18/1
f 289/9/1 290/10/1 291/11/1 292/12/1
f 293/17/1 294/9/1 295/12/1 296/18/1
f 297/9/1 298/10/1 299/11/1 300/12/1
f 301/17/1 302/9/1 303/12/1 304/18/1
f 305/9/1 306/10/1 307/11/1 308/12/1
f 309/17/1 310/9/1 311/12/1 312/18/1
f 313/9/1 314/10/1 315/11/1 316/12/1
f 317/17/1 318/9/1 319/12/1 320/18/1
f 321/9/1 322/10/1 323/11/1 324/12/1
f 325/17/1 326/9/1 327/12/1 328/18/1
f 329/9/1 330/10/1 331/11/1 332/12/1
f 333/17/1 334/9/1 335/12/1 336/18/1
f 337/9/1 338/10/1 339/11/1 340/12/1
f 341/17/1 342/9/1 343/12/1 344/18/1
f 345/9/1 346/10/1 347/11/1 348/12/1
f 349/17/1 350/9/1 351/12/1 352/18/1
f 353/9/1 354/10/1 355/11/1 356/12/1
f 357/17/1 358/9/1 359/12/1 360/18/1
f 361/9/1 362/10/1 363/11/1 364/12/1
f 365/17/1 366/9/1 367/12/1 368/18/1
f 369/9/1 370/10/1 371/11/1 372/12/1
f 373/17/1 374/9/1 375/12/1 376/18/1
f 377/9/1 378/10/1 379/11/1 380/12/1
f 381/17/1 382/9/1 383/12/1 384/18/1
f 385/9/1 386/10/1 387/11/1 388/12/1
f 389/17/1 390/9/1 391/12/1 392/18/1
f 393/9/1 394/10/1 395/11/1 396/12/1
f 397/17/1 398/9/1 399/12/1 400/18/1
f 401/9/1 402/10/1 403/11/1 404/12/1
f 405/17/1 406/9/1 407/12/1 408/18/1
f 409/9/1 410/10/1 411/11/1 412/12/1
f 413/17/1 414/9/1 415/12/1 416/18/1

