# Tiled2Unity generated file. Do not modify by hand.
# Wavefront file for 'Map_first_mesh_0014.obj'

# Vertices (Count = 24)
v -0.32 -1.92 0
v -0.64 -1.92 0
v -0.64 -1.6 0
v -0.32 -1.6 0
v -1.6 -1.92 0
v -1.92 -1.92 0
v -1.92 -1.6 0
v -1.6 -1.6 0
v -0.32 -2.24 0
v -0.64 -2.24 0
v -0.64 -1.92 0
v -0.32 -1.92 0
v -1.6 -2.24 0
v -1.92 -2.24 0
v -1.92 -1.92 0
v -1.6 -1.92 0
v -0.32 -2.56 0
v -0.64 -2.56 0
v -0.64 -2.24 0
v -0.32 -2.24 0
v -1.6 -2.56 0
v -1.92 -2.56 0
v -1.92 -2.24 0
v -1.6 -2.24 0

# Texture cooridinates (Count = 6)
vt 0.5 0.0625
vt 0.53125 0.0625
vt 0.53125 0.09375
vt 0.5 0.09375
vt 0.5625 0.0625
vt 0.5625 0.09375

# Normal
vn 0 0 -1

# Mesh description
g Map_first_mesh_0014

# Faces
f 1/1/1 2/2/1 3/3/1 4/4/1
f 5/2/1 6/5/1 7/6/1 8/3/1
f 9/1/1 10/2/1 11/3/1 12/4/1
f 13/2/1 14/5/1 15/6/1 16/3/1
f 17/1/1 18/2/1 19/3/1 20/4/1
f 21/2/1 22/5/1 23/6/1 24/3/1

