# Tiled2Unity generated file. Do not modify by hand.
# Wavefront file for 'Map_first_mesh_0008.obj'

# Vertices (Count = 344)
v -0.32 -0.32 0
v -0.64 -0.32 0
v -0.64 0 0
v -0.32 0 0
v -0.64 -0.32 0
v -0.96 -0.32 0
v -0.96 0 0
v -0.64 0 0
v -0.96 -0.32 0
v -1.28 -0.32 0
v -1.28 0 0
v -0.96 0 0
v -1.28 -0.32 0
v -1.6 -0.32 0
v -1.6 0 0
v -1.28 0 0
v -1.6 -0.32 0
v -1.92 -0.32 0
v -1.92 0 0
v -1.6 0 0
v -1.92 -0.32 0
v -2.24 -0.32 0
v -2.24 0 0
v -1.92 0 0
v -2.24 -0.32 0
v -2.56 -0.32 0
v -2.56 0 0
v -2.24 0 0
v -2.56 -0.32 0
v -2.88 -0.32 0
v -2.88 0 0
v -2.56 0 0
v -2.88 -0.32 0
v -3.2 -0.32 0
v -3.2 0 0
v -2.88 0 0
v -3.2 -0.32 0
v -3.52 -0.32 0
v -3.52 0 0
v -3.2 0 0
v -3.52 -0.32 0
v -3.84 -0.32 0
v -3.84 0 0
v -3.52 0 0
v -3.84 -0.32 0
v -4.16 -0.32 0
v -4.16 0 0
v -3.84 0 0
v -4.16 -0.32 0
v -4.48 -0.32 0
v -4.48 0 0
v -4.16 0 0
v -4.48 -0.32 0
v -4.8 -0.32 0
v -4.8 0 0
v -4.48 0 0
v -4.8 -0.32 0
v -5.12 -0.32 0
v -5.12 0 0
v -4.8 0 0
v -5.12 -0.32 0
v -5.44 -0.32 0
v -5.44 0 0
v -5.12 0 0
v -5.44 -0.32 0
v -5.76 -0.32 0
v -5.76 0 0
v -5.44 0 0
v -5.76 -0.32 0
v -6.08 -0.32 0
v -6.08 0 0
v -5.76 0 0
v -6.08 -0.32 0
v -6.4 -0.32 0
v -6.4 0 0
v -6.08 0 0
v -6.4 -0.32 0
v -6.72 -0.32 0
v -6.72 0 0
v -6.4 0 0
v -6.72 -0.32 0
v -7.04 -0.32 0
v -7.04 0 0
v -6.72 0 0
v -7.04 -0.32 0
v -7.36 -0.32 0
v -7.36 0 0
v -7.04 0 0
v -7.36 -0.32 0
v -7.68 -0.32 0
v -7.68 0 0
v -7.36 0 0
v -7.68 -0.32 0
v -8 -0.32 0
v -8 0 0
v -7.68 0 0
v -8 -0.32 0
v -8.32 -0.32 0
v -8.32 0 0
v -8 0 0
v -8.32 -0.32 0
v -8.639999 -0.32 0
v -8.639999 0 0
v -8.32 0 0
v -8.639999 -0.32 0
v -8.96 -0.32 0
v -8.96 0 0
v -8.639999 0 0
v -8.96 -0.32 0
v -9.28 -0.32 0
v -9.28 0 0
v -8.96 0 0
v -9.28 -0.32 0
v -9.599999 -0.32 0
v -9.599999 0 0
v -9.28 0 0
v -9.599999 -0.32 0
v -9.92 -0.32 0
v -9.92 0 0
v -9.599999 0 0
v 0 -3.52 0
v -0.32 -3.52 0
v -0.32 -3.2 0
v 0 -3.2 0
v -9.92 -3.52 0
v -10.24 -3.52 0
v -10.24 -3.2 0
v -9.92 -3.2 0
v -0.32 -4.16 0
v -0.64 -4.16 0
v -0.64 -3.84 0
v -0.32 -3.84 0
v -0.64 -4.16 0
v -0.96 -4.16 0
v -0.96 -3.84 0
v -0.64 -3.84 0
v -0.96 -4.16 0
v -1.28 -4.16 0
v -1.28 -3.84 0
v -0.96 -3.84 0
v -1.28 -4.16 0
v -1.6 -4.16 0
v -1.6 -3.84 0
v -1.28 -3.84 0
v -1.6 -4.16 0
v -1.92 -4.16 0
v -1.92 -3.84 0
v -1.6 -3.84 0
v -1.92 -4.16 0
v -2.24 -4.16 0
v -2.24 -3.84 0
v -1.92 -3.84 0
v -2.24 -4.16 0
v -2.56 -4.16 0
v -2.56 -3.84 0
v -2.24 -3.84 0
v -2.56 -4.16 0
v -2.88 -4.16 0
v -2.88 -3.84 0
v -2.56 -3.84 0
v -2.88 -4.16 0
v -3.2 -4.16 0
v -3.2 -3.84 0
v -2.88 -3.84 0
v -3.2 -4.16 0
v -3.52 -4.16 0
v -3.52 -3.84 0
v -3.2 -3.84 0
v -3.52 -4.16 0
v -3.84 -4.16 0
v -3.84 -3.84 0
v -3.52 -3.84 0
v -3.84 -4.16 0
v -4.16 -4.16 0
v -4.16 -3.84 0
v -3.84 -3.84 0
v -4.16 -4.16 0
v -4.48 -4.16 0
v -4.48 -3.84 0
v -4.16 -3.84 0
v -4.48 -4.16 0
v -4.8 -4.16 0
v -4.8 -3.84 0
v -4.48 -3.84 0
v -4.8 -4.16 0
v -5.12 -4.16 0
v -5.12 -3.84 0
v -4.8 -3.84 0
v -5.12 -4.16 0
v -5.44 -4.16 0
v -5.44 -3.84 0
v -5.12 -3.84 0
v -5.44 -4.16 0
v -5.76 -4.16 0
v -5.76 -3.84 0
v -5.44 -3.84 0
v -5.76 -4.16 0
v -6.08 -4.16 0
v -6.08 -3.84 0
v -5.76 -3.84 0
v -6.08 -4.16 0
v -6.4 -4.16 0
v -6.4 -3.84 0
v -6.08 -3.84 0
v -6.4 -4.16 0
v -6.72 -4.16 0
v -6.72 -3.84 0
v -6.4 -3.84 0
v -6.72 -4.16 0
v -7.04 -4.16 0
v -7.04 -3.84 0
v -6.72 -3.84 0
v -7.04 -4.16 0
v -7.36 -4.16 0
v -7.36 -3.84 0
v -7.04 -3.84 0
v -7.36 -4.16 0
v -7.68 -4.16 0
v -7.68 -3.84 0
v -7.36 -3.84 0
v -8.639999 -4.16 0
v -8.96 -4.16 0
v -8.96 -3.84 0
v -8.639999 -3.84 0
v -8.96 -4.16 0
v -9.28 -4.16 0
v -9.28 -3.84 0
v -8.96 -3.84 0
v -9.28 -4.16 0
v -9.599999 -4.16 0
v -9.599999 -3.84 0
v -9.28 -3.84 0
v -9.599999 -4.16 0
v -9.92 -4.16 0
v -9.92 -3.84 0
v -9.599999 -3.84 0
v -0.32 -4.48 0
v -0.64 -4.48 0
v -0.64 -4.16 0
v -0.32 -4.16 0
v -0.64 -4.48 0
v -0.96 -4.48 0
v -0.96 -4.16 0
v -0.64 -4.16 0
v -0.96 -4.48 0
v -1.28 -4.48 0
v -1.28 -4.16 0
v -0.96 -4.16 0
v -1.28 -4.48 0
v -1.6 -4.48 0
v -1.6 -4.16 0
v -1.28 -4.16 0
v -1.6 -4.48 0
v -1.92 -4.48 0
v -1.92 -4.16 0
v -1.6 -4.16 0
v -1.92 -4.48 0
v -2.24 -4.48 0
v -2.24 -4.16 0
v -1.92 -4.16 0
v -2.24 -4.48 0
v -2.56 -4.48 0
v -2.56 -4.16 0
v -2.24 -4.16 0
v -2.56 -4.48 0
v -2.88 -4.48 0
v -2.88 -4.16 0
v -2.56 -4.16 0
v -2.88 -4.48 0
v -3.2 -4.48 0
v -3.2 -4.16 0
v -2.88 -4.16 0
v -3.2 -4.48 0
v -3.52 -4.48 0
v -3.52 -4.16 0
v -3.2 -4.16 0
v -3.52 -4.48 0
v -3.84 -4.48 0
v -3.84 -4.16 0
v -3.52 -4.16 0
v -3.84 -4.48 0
v -4.16 -4.48 0
v -4.16 -4.16 0
v -3.84 -4.16 0
v -4.16 -4.48 0
v -4.48 -4.48 0
v -4.48 -4.16 0
v -4.16 -4.16 0
v -4.48 -4.48 0
v -4.8 -4.48 0
v -4.8 -4.16 0
v -4.48 -4.16 0
v -4.8 -4.48 0
v -5.12 -4.48 0
v -5.12 -4.16 0
v -4.8 -4.16 0
v -5.12 -4.48 0
v -5.44 -4.48 0
v -5.44 -4.16 0
v -5.12 -4.16 0
v -5.44 -4.48 0
v -5.76 -4.48 0
v -5.76 -4.16 0
v -5.44 -4.16 0
v -5.76 -4.48 0
v -6.08 -4.48 0
v -6.08 -4.16 0
v -5.76 -4.16 0
v -6.08 -4.48 0
v -6.4 -4.48 0
v -6.4 -4.16 0
v -6.08 -4.16 0
v -6.4 -4.48 0
v -6.72 -4.48 0
v -6.72 -4.16 0
v -6.4 -4.16 0
v -6.72 -4.48 0
v -7.04 -4.48 0
v -7.04 -4.16 0
v -6.72 -4.16 0
v -7.04 -4.48 0
v -7.36 -4.48 0
v -7.36 -4.16 0
v -7.04 -4.16 0
v -7.36 -4.48 0
v -7.68 -4.48 0
v -7.68 -4.16 0
v -7.36 -4.16 0
v -8.639999 -4.48 0
v -8.96 -4.48 0
v -8.96 -4.16 0
v -8.639999 -4.16 0
v -8.96 -4.48 0
v -9.28 -4.48 0
v -9.28 -4.16 0
v -8.96 -4.16 0
v -9.28 -4.48 0
v -9.599999 -4.48 0
v -9.599999 -4.16 0
v -9.28 -4.16 0
v -9.599999 -4.48 0
v -9.92 -4.48 0
v -9.92 -4.16 0
v -9.599999 -4.16 0

# Texture cooridinates (Count = 19)
vt 0.5 0.8947368
vt 0.625 0.8947368
vt 0.625 0.9473684
vt 0.5 0.9473684
vt 0.875 0.8947368
vt 1 0.8947368
vt 1 0.9473684
vt 0.875 0.9473684
vt 0.75 0.8947368
vt 0.75 0.9473684
vt 0.5 0.8421053
vt 0.625 0.8421053
vt 0.75 0.8421053
vt 0.375 0.8421053
vt 0.375 0.8947368
vt 0.5 0.7894737
vt 0.625 0.7894737
vt 0.75 0.7894737
vt 0.375 0.7894737

# Normal
vn 0 0 -1

# Mesh description
g Map_first_mesh_0008

# Faces
f 1/1/1 2/2/1 3/3/1 4/4/1
f 5/1/1 6/2/1 7/3/1 8/4/1
f 9/1/1 10/2/1 11/3/1 12/4/1
f 13/1/1 14/2/1 15/3/1 16/4/1
f 17/1/1 18/2/1 19/3/1 20/4/1
f 21/1/1 22/2/1 23/3/1 24/4/1
f 25/1/1 26/2/1 27/3/1 28/4/1
f 29/1/1 30/2/1 31/3/1 32/4/1
f 33/1/1 34/2/1 35/3/1 36/4/1
f 37/1/1 38/2/1 39/3/1 40/4/1
f 41/1/1 42/2/1 43/3/1 44/4/1
f 45/1/1 46/2/1 47/3/1 48/4/1
f 49/1/1 50/2/1 51/3/1 52/4/1
f 53/1/1 54/2/1 55/3/1 56/4/1
f 57/1/1 58/2/1 59/3/1 60/4/1
f 61/1/1 62/2/1 63/3/1 64/4/1
f 65/1/1 66/2/1 67/3/1 68/4/1
f 69/1/1 70/2/1 71/3/1 72/4/1
f 73/1/1 74/2/1 75/3/1 76/4/1
f 77/1/1 78/2/1 79/3/1 80/4/1
f 81/1/1 82/2/1 83/3/1 84/4/1
f 85/1/1 86/2/1 87/3/1 88/4/1
f 89/1/1 90/2/1 91/3/1 92/4/1
f 93/1/1 94/2/1 95/3/1 96/4/1
f 97/1/1 98/2/1 99/3/1 100/4/1
f 101/1/1 102/2/1 103/3/1 104/4/1
f 105/1/1 106/2/1 107/3/1 108/4/1
f 109/1/1 110/2/1 111/3/1 112/4/1
f 113/1/1 114/2/1 115/3/1 116/4/1
f 117/1/1 118/2/1 119/3/1 120/4/1
f 121/5/1 122/6/1 123/7/1 124/8/1
f 125/9/1 126/5/1 127/8/1 128/10/1
f 129/11/1 130/12/1 131/2/1 132/1/1
f 133/11/1 134/12/1 135/2/1 136/1/1
f 137/11/1 138/12/1 139/2/1 140/1/1
f 141/11/1 142/12/1 143/2/1 144/1/1
f 145/11/1 146/12/1 147/2/1 148/1/1
f 149/11/1 150/12/1 151/2/1 152/1/1
f 153/11/1 154/12/1 155/2/1 156/1/1
f 157/11/1 158/12/1 159/2/1 160/1/1
f 161/11/1 162/12/1 163/2/1 164/1/1
f 165/11/1 166/12/1 167/2/1 168/1/1
f 169/11/1 170/12/1 171/2/1 172/1/1
f 173/11/1 174/12/1 175/2/1 176/1/1
f 177/11/1 178/12/1 179/2/1 180/1/1
f 181/11/1 182/12/1 183/2/1 184/1/1
f 185/11/1 186/12/1 187/2/1 188/1/1
f 189/11/1 190/12/1 191/2/1 192/1/1
f 193/11/1 194/12/1 195/2/1 196/1/1
f 197/11/1 198/12/1 199/2/1 200/1/1
f 201/11/1 202/12/1 203/2/1 204/1/1
f 205/11/1 206/12/1 207/2/1 208/1/1
f 209/11/1 210/12/1 211/2/1 212/1/1
f 213/11/1 214/12/1 215/2/1 216/1/1
f 217/12/1 218/13/1 219/9/1 220/2/1
f 221/14/1 222/11/1 223/1/1 224/15/1
f 225/11/1 226/12/1 227/2/1 228/1/1
f 229/11/1 230/12/1 231/2/1 232/1/1
f 233/11/1 234/12/1 235/2/1 236/1/1
f 237/16/1 238/17/1 239/12/1 240/11/1
f 241/16/1 242/17/1 243/12/1 244/11/1
f 245/16/1 246/17/1 247/12/1 248/11/1
f 249/16/1 250/17/1 251/12/1 252/11/1
f 253/16/1 254/17/1 255/12/1 256/11/1
f 257/16/1 258/17/1 259/12/1 260/11/1
f 261/16/1 262/17/1 263/12/1 264/11/1
f 265/16/1 266/17/1 267/12/1 268/11/1
f 269/16/1 270/17/1 271/12/1 272/11/1
f 273/16/1 274/17/1 275/12/1 276/11/1
f 277/16/1 278/17/1 279/12/1 280/11/1
f 281/16/1 282/17/1 283/12/1 284/11/1
f 285/16/1 286/17/1 287/12/1 288/11/1
f 289/16/1 290/17/1 291/12/1 292/11/1
f 293/16/1 294/17/1 295/12/1 296/11/1
f 297/16/1 298/17/1 299/12/1 300/11/1
f 301/16/1 302/17/1 303/12/1 304/11/1
f 305/16/1 306/17/1 307/12/1 308/11/1
f 309/16/1 310/17/1 311/12/1 312/11/1
f 313/16/1 314/17/1 315/12/1 316/11/1
f 317/16/1 318/17/1 319/12/1 320/11/1
f 321/16/1 322/17/1 323/12/1 324/11/1
f 325/17/1 326/18/1 327/13/1 328/12/1
f 329/19/1 330/16/1 331/11/1 332/14/1
f 333/16/1 334/17/1 335/12/1 336/11/1
f 337/16/1 338/17/1 339/12/1 340/11/1
f 341/16/1 342/17/1 343/12/1 344/11/1

