# Tiled2Unity generated file. Do not modify by hand.
# Wavefront file for 'Map_second_mesh_0005.obj'

# Vertices (Count = 656)
v 0 -0.32 0
v -0.32 -0.32 0
v -0.32 0 0
v 0 0 0
v -3.84 -0.32 0
v -4.16 -0.32 0
v -4.16 0 0
v -3.84 0 0
v -4.16 -0.32 0
v -4.48 -0.32 0
v -4.48 0 0
v -4.16 0 0
v -4.48 -0.32 0
v -4.8 -0.32 0
v -4.8 0 0
v -4.48 0 0
v -4.8 -0.32 0
v -5.12 -0.32 0
v -5.12 0 0
v -4.8 0 0
v 0 -0.64 0
v -0.32 -0.64 0
v -0.32 -0.32 0
v 0 -0.32 0
v -0.32 -0.64 0
v -0.64 -0.64 0
v -0.64 -0.32 0
v -0.32 -0.32 0
v -0.64 -0.64 0
v -0.96 -0.64 0
v -0.96 -0.32 0
v -0.64 -0.32 0
v -0.96 -0.64 0
v -1.28 -0.64 0
v -1.28 -0.32 0
v -0.96 -0.32 0
v -1.28 -0.64 0
v -1.6 -0.64 0
v -1.6 -0.32 0
v -1.28 -0.32 0
v -1.6 -0.64 0
v -1.92 -0.64 0
v -1.92 -0.32 0
v -1.6 -0.32 0
v -1.92 -0.64 0
v -2.24 -0.64 0
v -2.24 -0.32 0
v -1.92 -0.32 0
v -2.24 -0.64 0
v -2.56 -0.64 0
v -2.56 -0.32 0
v -2.24 -0.32 0
v -2.56 -0.64 0
v -2.88 -0.64 0
v -2.88 -0.32 0
v -2.56 -0.32 0
v -2.88 -0.64 0
v -3.2 -0.64 0
v -3.2 -0.32 0
v -2.88 -0.32 0
v -3.2 -0.64 0
v -3.52 -0.64 0
v -3.52 -0.32 0
v -3.2 -0.32 0
v -3.52 -0.64 0
v -3.84 -0.64 0
v -3.84 -0.32 0
v -3.52 -0.32 0
v -3.84 -0.64 0
v -4.16 -0.64 0
v -4.16 -0.32 0
v -3.84 -0.32 0
v -4.16 -0.64 0
v -4.48 -0.64 0
v -4.48 -0.32 0
v -4.16 -0.32 0
v -4.48 -0.64 0
v -4.8 -0.64 0
v -4.8 -0.32 0
v -4.48 -0.32 0
v -4.8 -0.64 0
v -5.12 -0.64 0
v -5.12 -0.32 0
v -4.8 -0.32 0
v 0 -0.96 0
v -0.32 -0.96 0
v -0.32 -0.64 0
v 0 -0.64 0
v -0.32 -0.96 0
v -0.64 -0.96 0
v -0.64 -0.64 0
v -0.32 -0.64 0
v -0.64 -0.96 0
v -0.96 -0.96 0
v -0.96 -0.64 0
v -0.64 -0.64 0
v -0.96 -0.96 0
v -1.28 -0.96 0
v -1.28 -0.64 0
v -0.96 -0.64 0
v -1.28 -0.96 0
v -1.6 -0.96 0
v -1.6 -0.64 0
v -1.28 -0.64 0
v -1.6 -0.96 0
v -1.92 -0.96 0
v -1.92 -0.64 0
v -1.6 -0.64 0
v -1.92 -0.96 0
v -2.24 -0.96 0
v -2.24 -0.64 0
v -1.92 -0.64 0
v -2.24 -0.96 0
v -2.56 -0.96 0
v -2.56 -0.64 0
v -2.24 -0.64 0
v -2.56 -0.96 0
v -2.88 -0.96 0
v -2.88 -0.64 0
v -2.56 -0.64 0
v -2.88 -0.96 0
v -3.2 -0.96 0
v -3.2 -0.64 0
v -2.88 -0.64 0
v -3.2 -0.96 0
v -3.52 -0.96 0
v -3.52 -0.64 0
v -3.2 -0.64 0
v -3.52 -0.96 0
v -3.84 -0.96 0
v -3.84 -0.64 0
v -3.52 -0.64 0
v -3.84 -0.96 0
v -4.16 -0.96 0
v -4.16 -0.64 0
v -3.84 -0.64 0
v -4.16 -0.96 0
v -4.48 -0.96 0
v -4.48 -0.64 0
v -4.16 -0.64 0
v -4.48 -0.96 0
v -4.8 -0.96 0
v -4.8 -0.64 0
v -4.48 -0.64 0
v -4.8 -0.96 0
v -5.12 -0.96 0
v -5.12 -0.64 0
v -4.8 -0.64 0
v 0 -1.28 0
v -0.32 -1.28 0
v -0.32 -0.96 0
v 0 -0.96 0
v -0.32 -1.28 0
v -0.64 -1.28 0
v -0.64 -0.96 0
v -0.32 -0.96 0
v -0.64 -1.28 0
v -0.96 -1.28 0
v -0.96 -0.96 0
v -0.64 -0.96 0
v -0.96 -1.28 0
v -1.28 -1.28 0
v -1.28 -0.96 0
v -0.96 -0.96 0
v -1.28 -1.28 0
v -1.6 -1.28 0
v -1.6 -0.96 0
v -1.28 -0.96 0
v -1.6 -1.28 0
v -1.92 -1.28 0
v -1.92 -0.96 0
v -1.6 -0.96 0
v -1.92 -1.28 0
v -2.24 -1.28 0
v -2.24 -0.96 0
v -1.92 -0.96 0
v -2.24 -1.28 0
v -2.56 -1.28 0
v -2.56 -0.96 0
v -2.24 -0.96 0
v -2.56 -1.28 0
v -2.88 -1.28 0
v -2.88 -0.96 0
v -2.56 -0.96 0
v -2.88 -1.28 0
v -3.2 -1.28 0
v -3.2 -0.96 0
v -2.88 -0.96 0
v -3.2 -1.28 0
v -3.52 -1.28 0
v -3.52 -0.96 0
v -3.2 -0.96 0
v -3.52 -1.28 0
v -3.84 -1.28 0
v -3.84 -0.96 0
v -3.52 -0.96 0
v -3.84 -1.28 0
v -4.16 -1.28 0
v -4.16 -0.96 0
v -3.84 -0.96 0
v -4.16 -1.28 0
v -4.48 -1.28 0
v -4.48 -0.96 0
v -4.16 -0.96 0
v -4.48 -1.28 0
v -4.8 -1.28 0
v -4.8 -0.96 0
v -4.48 -0.96 0
v -4.8 -1.28 0
v -5.12 -1.28 0
v -5.12 -0.96 0
v -4.8 -0.96 0
v 0 -1.6 0
v -0.32 -1.6 0
v -0.32 -1.28 0
v 0 -1.28 0
v -0.32 -1.6 0
v -0.64 -1.6 0
v -0.64 -1.28 0
v -0.32 -1.28 0
v -0.64 -1.6 0
v -0.96 -1.6 0
v -0.96 -1.28 0
v -0.64 -1.28 0
v -0.96 -1.6 0
v -1.28 -1.6 0
v -1.28 -1.28 0
v -0.96 -1.28 0
v -1.28 -1.6 0
v -1.6 -1.6 0
v -1.6 -1.28 0
v -1.28 -1.28 0
v -1.6 -1.6 0
v -1.92 -1.6 0
v -1.92 -1.28 0
v -1.6 -1.28 0
v -1.92 -1.6 0
v -2.24 -1.6 0
v -2.24 -1.28 0
v -1.92 -1.28 0
v -2.24 -1.6 0
v -2.56 -1.6 0
v -2.56 -1.28 0
v -2.24 -1.28 0
v -2.56 -1.6 0
v -2.88 -1.6 0
v -2.88 -1.28 0
v -2.56 -1.28 0
v -2.88 -1.6 0
v -3.2 -1.6 0
v -3.2 -1.28 0
v -2.88 -1.28 0
v -3.2 -1.6 0
v -3.52 -1.6 0
v -3.52 -1.28 0
v -3.2 -1.28 0
v -3.52 -1.6 0
v -3.84 -1.6 0
v -3.84 -1.28 0
v -3.52 -1.28 0
v -3.84 -1.6 0
v -4.16 -1.6 0
v -4.16 -1.28 0
v -3.84 -1.28 0
v -4.16 -1.6 0
v -4.48 -1.6 0
v -4.48 -1.28 0
v -4.16 -1.28 0
v -4.48 -1.6 0
v -4.8 -1.6 0
v -4.8 -1.28 0
v -4.48 -1.28 0
v -4.8 -1.6 0
v -5.12 -1.6 0
v -5.12 -1.28 0
v -4.8 -1.28 0
v 0 -1.92 0
v -0.32 -1.92 0
v -0.32 -1.6 0
v 0 -1.6 0
v -0.32 -1.92 0
v -0.64 -1.92 0
v -0.64 -1.6 0
v -0.32 -1.6 0
v -0.64 -1.92 0
v -0.96 -1.92 0
v -0.96 -1.6 0
v -0.64 -1.6 0
v -0.96 -1.92 0
v -1.28 -1.92 0
v -1.28 -1.6 0
v -0.96 -1.6 0
v -1.28 -1.92 0
v -1.6 -1.92 0
v -1.6 -1.6 0
v -1.28 -1.6 0
v -1.6 -1.92 0
v -1.92 -1.92 0
v -1.92 -1.6 0
v -1.6 -1.6 0
v -1.92 -1.92 0
v -2.24 -1.92 0
v -2.24 -1.6 0
v -1.92 -1.6 0
v -2.24 -1.92 0
v -2.56 -1.92 0
v -2.56 -1.6 0
v -2.24 -1.6 0
v -2.56 -1.92 0
v -2.88 -1.92 0
v -2.88 -1.6 0
v -2.56 -1.6 0
v -2.88 -1.92 0
v -3.2 -1.92 0
v -3.2 -1.6 0
v -2.88 -1.6 0
v -3.2 -1.92 0
v -3.52 -1.92 0
v -3.52 -1.6 0
v -3.2 -1.6 0
v -3.52 -1.92 0
v -3.84 -1.92 0
v -3.84 -1.6 0
v -3.52 -1.6 0
v -3.84 -1.92 0
v -4.16 -1.92 0
v -4.16 -1.6 0
v -3.84 -1.6 0
v -4.16 -1.92 0
v -4.48 -1.92 0
v -4.48 -1.6 0
v -4.16 -1.6 0
v -4.48 -1.92 0
v -4.8 -1.92 0
v -4.8 -1.6 0
v -4.48 -1.6 0
v -4.8 -1.92 0
v -5.12 -1.92 0
v -5.12 -1.6 0
v -4.8 -1.6 0
v 0 -2.24 0
v -0.32 -2.24 0
v -0.32 -1.92 0
v 0 -1.92 0
v -0.32 -2.24 0
v -0.64 -2.24 0
v -0.64 -1.92 0
v -0.32 -1.92 0
v -0.64 -2.24 0
v -0.96 -2.24 0
v -0.96 -1.92 0
v -0.64 -1.92 0
v -0.96 -2.24 0
v -1.28 -2.24 0
v -1.28 -1.92 0
v -0.96 -1.92 0
v -1.28 -2.24 0
v -1.6 -2.24 0
v -1.6 -1.92 0
v -1.28 -1.92 0
v -1.6 -2.24 0
v -1.92 -2.24 0
v -1.92 -1.92 0
v -1.6 -1.92 0
v -1.92 -2.24 0
v -2.24 -2.24 0
v -2.24 -1.92 0
v -1.92 -1.92 0
v -2.24 -2.24 0
v -2.56 -2.24 0
v -2.56 -1.92 0
v -2.24 -1.92 0
v -2.56 -2.24 0
v -2.88 -2.24 0
v -2.88 -1.92 0
v -2.56 -1.92 0
v -2.88 -2.24 0
v -3.2 -2.24 0
v -3.2 -1.92 0
v -2.88 -1.92 0
v -3.2 -2.24 0
v -3.52 -2.24 0
v -3.52 -1.92 0
v -3.2 -1.92 0
v -3.52 -2.24 0
v -3.84 -2.24 0
v -3.84 -1.92 0
v -3.52 -1.92 0
v -3.84 -2.24 0
v -4.16 -2.24 0
v -4.16 -1.92 0
v -3.84 -1.92 0
v -4.16 -2.24 0
v -4.48 -2.24 0
v -4.48 -1.92 0
v -4.16 -1.92 0
v -4.48 -2.24 0
v -4.8 -2.24 0
v -4.8 -1.92 0
v -4.48 -1.92 0
v -4.8 -2.24 0
v -5.12 -2.24 0
v -5.12 -1.92 0
v -4.8 -1.92 0
v 0 -2.56 0
v -0.32 -2.56 0
v -0.32 -2.24 0
v 0 -2.24 0
v -0.32 -2.56 0
v -0.64 -2.56 0
v -0.64 -2.24 0
v -0.32 -2.24 0
v -0.64 -2.56 0
v -0.96 -2.56 0
v -0.96 -2.24 0
v -0.64 -2.24 0
v -0.96 -2.56 0
v -1.28 -2.56 0
v -1.28 -2.24 0
v -0.96 -2.24 0
v -1.28 -2.56 0
v -1.6 -2.56 0
v -1.6 -2.24 0
v -1.28 -2.24 0
v -1.6 -2.56 0
v -1.92 -2.56 0
v -1.92 -2.24 0
v -1.6 -2.24 0
v -1.92 -2.56 0
v -2.24 -2.56 0
v -2.24 -2.24 0
v -1.92 -2.24 0
v -2.24 -2.56 0
v -2.56 -2.56 0
v -2.56 -2.24 0
v -2.24 -2.24 0
v -2.56 -2.56 0
v -2.88 -2.56 0
v -2.88 -2.24 0
v -2.56 -2.24 0
v -2.88 -2.56 0
v -3.2 -2.56 0
v -3.2 -2.24 0
v -2.88 -2.24 0
v -3.2 -2.56 0
v -3.52 -2.56 0
v -3.52 -2.24 0
v -3.2 -2.24 0
v -3.52 -2.56 0
v -3.84 -2.56 0
v -3.84 -2.24 0
v -3.52 -2.24 0
v -3.84 -2.56 0
v -4.16 -2.56 0
v -4.16 -2.24 0
v -3.84 -2.24 0
v -4.16 -2.56 0
v -4.48 -2.56 0
v -4.48 -2.24 0
v -4.16 -2.24 0
v -4.48 -2.56 0
v -4.8 -2.56 0
v -4.8 -2.24 0
v -4.48 -2.24 0
v -4.8 -2.56 0
v -5.12 -2.56 0
v -5.12 -2.24 0
v -4.8 -2.24 0
v 0 -2.88 0
v -0.32 -2.88 0
v -0.32 -2.56 0
v 0 -2.56 0
v -0.32 -2.88 0
v -0.64 -2.88 0
v -0.64 -2.56 0
v -0.32 -2.56 0
v -0.64 -2.88 0
v -0.96 -2.88 0
v -0.96 -2.56 0
v -0.64 -2.56 0
v -0.96 -2.88 0
v -1.28 -2.88 0
v -1.28 -2.56 0
v -0.96 -2.56 0
v -1.28 -2.88 0
v -1.6 -2.88 0
v -1.6 -2.56 0
v -1.28 -2.56 0
v -1.6 -2.88 0
v -1.92 -2.88 0
v -1.92 -2.56 0
v -1.6 -2.56 0
v -1.92 -2.88 0
v -2.24 -2.88 0
v -2.24 -2.56 0
v -1.92 -2.56 0
v -2.24 -2.88 0
v -2.56 -2.88 0
v -2.56 -2.56 0
v -2.24 -2.56 0
v -2.56 -2.88 0
v -2.88 -2.88 0
v -2.88 -2.56 0
v -2.56 -2.56 0
v -2.88 -2.88 0
v -3.2 -2.88 0
v -3.2 -2.56 0
v -2.88 -2.56 0
v -3.2 -2.88 0
v -3.52 -2.88 0
v -3.52 -2.56 0
v -3.2 -2.56 0
v -3.52 -2.88 0
v -3.84 -2.88 0
v -3.84 -2.56 0
v -3.52 -2.56 0
v -3.84 -2.88 0
v -4.16 -2.88 0
v -4.16 -2.56 0
v -3.84 -2.56 0
v -4.16 -2.88 0
v -4.48 -2.88 0
v -4.48 -2.56 0
v -4.16 -2.56 0
v -4.48 -2.88 0
v -4.8 -2.88 0
v -4.8 -2.56 0
v -4.48 -2.56 0
v -4.8 -2.88 0
v -5.12 -2.88 0
v -5.12 -2.56 0
v -4.8 -2.56 0
v 0 -3.2 0
v -0.32 -3.2 0
v -0.32 -2.88 0
v 0 -2.88 0
v -0.32 -3.2 0
v -0.64 -3.2 0
v -0.64 -2.88 0
v -0.32 -2.88 0
v -0.64 -3.2 0
v -0.96 -3.2 0
v -0.96 -2.88 0
v -0.64 -2.88 0
v -0.96 -3.2 0
v -1.28 -3.2 0
v -1.28 -2.88 0
v -0.96 -2.88 0
v -1.28 -3.2 0
v -1.6 -3.2 0
v -1.6 -2.88 0
v -1.28 -2.88 0
v -1.6 -3.2 0
v -1.92 -3.2 0
v -1.92 -2.88 0
v -1.6 -2.88 0
v -1.92 -3.2 0
v -2.24 -3.2 0
v -2.24 -2.88 0
v -1.92 -2.88 0
v -2.24 -3.2 0
v -2.56 -3.2 0
v -2.56 -2.88 0
v -2.24 -2.88 0
v -2.56 -3.2 0
v -2.88 -3.2 0
v -2.88 -2.88 0
v -2.56 -2.88 0
v -2.88 -3.2 0
v -3.2 -3.2 0
v -3.2 -2.88 0
v -2.88 -2.88 0
v -3.2 -3.2 0
v -3.52 -3.2 0
v -3.52 -2.88 0
v -3.2 -2.88 0
v -3.52 -3.2 0
v -3.84 -3.2 0
v -3.84 -2.88 0
v -3.52 -2.88 0
v -3.84 -3.2 0
v -4.16 -3.2 0
v -4.16 -2.88 0
v -3.84 -2.88 0
v -4.16 -3.2 0
v -4.48 -3.2 0
v -4.48 -2.88 0
v -4.16 -2.88 0
v -4.48 -3.2 0
v -4.8 -3.2 0
v -4.8 -2.88 0
v -4.48 -2.88 0
v -4.8 -3.2 0
v -5.12 -3.2 0
v -5.12 -2.88 0
v -4.8 -2.88 0
v -1.28 -3.52 0
v -1.6 -3.52 0
v -1.6 -3.2 0
v -1.28 -3.2 0
v -1.6 -3.52 0
v -1.92 -3.52 0
v -1.92 -3.2 0
v -1.6 -3.2 0
v -1.92 -3.52 0
v -2.24 -3.52 0
v -2.24 -3.2 0
v -1.92 -3.2 0
v -1.28 -3.84 0
v -1.6 -3.84 0
v -1.6 -3.52 0
v -1.28 -3.52 0
v -1.6 -3.84 0
v -1.92 -3.84 0
v -1.92 -3.52 0
v -1.6 -3.52 0
v -1.92 -3.84 0
v -2.24 -3.84 0
v -2.24 -3.52 0
v -1.92 -3.52 0
v -1.28 -4.16 0
v -1.6 -4.16 0
v -1.6 -3.84 0
v -1.28 -3.84 0
v -1.6 -4.16 0
v -1.92 -4.16 0
v -1.92 -3.84 0
v -1.6 -3.84 0
v -1.92 -4.16 0
v -2.24 -4.16 0
v -2.24 -3.84 0
v -1.92 -3.84 0
v -1.28 -4.48 0
v -1.6 -4.48 0
v -1.6 -4.16 0
v -1.28 -4.16 0
v -1.6 -4.48 0
v -1.92 -4.48 0
v -1.92 -4.16 0
v -1.6 -4.16 0
v -1.92 -4.48 0
v -2.24 -4.48 0
v -2.24 -4.16 0
v -1.92 -4.16 0
v -1.28 -4.8 0
v -1.6 -4.8 0
v -1.6 -4.48 0
v -1.28 -4.48 0
v -1.6 -4.8 0
v -1.92 -4.8 0
v -1.92 -4.48 0
v -1.6 -4.48 0
v -1.92 -4.8 0
v -2.24 -4.8 0
v -2.24 -4.48 0
v -1.92 -4.48 0

# Texture cooridinates (Count = 65)
vt 0.4666667 0.5
vt 0.5333334 0.5
vt 0.5333334 0.6
vt 0.4666667 0.6
vt 0.6 0.5
vt 0.6666667 0.5
vt 0.6666667 0.6
vt 0.6 0.6
vt 0.6666667 0.4
vt 0.7333333 0.4
vt 0.7333333 0.5
vt 0.8 0.4
vt 0.8 0.5
vt 0.8666667 0.4
vt 0.8666667 0.5
vt 0.4666667 0.4
vt 0.5333334 0.4
vt 0.6 0.4
vt 0.6666667 0.3
vt 0.7333333 0.3
vt 0.8 0.3
vt 0.8666667 0.3
vt 0.4666667 0.3
vt 0.5333334 0.3
vt 0.6 0.3
vt 0.5333334 0.2
vt 0.6 0.2
vt 0.6666667 0.2
vt 0.6 0.1
vt 0.6666667 0.1
vt 0.5333334 0.1
vt 0.6 0
vt 0.6666667 0
vt 0.5333334 0
vt 0.06666667 0.5
vt 0.1333333 0.5
vt 0.1333333 0.6
vt 0.06666667 0.6
vt 0.2 0.5
vt 0.2 0.6
vt 0.2666667 0.5
vt 0.2666667 0.6
vt 0.06666667 0.4
vt 0.1333333 0.4
vt 0.2 0.4
vt 0.2666667 0.4
vt 0.06666667 0.3
vt 0.1333333 0.3
vt 0.2 0.3
vt 0.2666667 0.3
vt 0.7333333 0.2
vt 0.8 0.2
vt 0.8666667 0.2
vt 0.06666667 0.2
vt 0.1333333 0.2
vt 0.2 0.2
vt 0.2666667 0.2
vt 0.06666667 0.1
vt 0.1333333 0.1
vt 0.2 0.1
vt 0.2666667 0.1
vt 0.06666667 0
vt 0.1333333 0
vt 0.2 0
vt 0.2666667 0

# Normal
vn 0 0 -1

# Mesh description
g Map_second_mesh_0005

# Faces
f 1/1/1 2/2/1 3/3/1 4/4/1
f 5/5/1 6/6/1 7/7/1 8/8/1
f 9/9/1 10/10/1 11/11/1 12/6/1
f 13/10/1 14/12/1 15/13/1 16/11/1
f 17/12/1 18/14/1 19/15/1 20/13/1
f 21/16/1 22/17/1 23/2/1 24/1/1
f 25/17/1 26/18/1 27/5/1 28/2/1
f 29/17/1 30/18/1 31/5/1 32/2/1
f 33/17/1 34/18/1 35/5/1 36/2/1
f 37/17/1 38/18/1 39/5/1 40/2/1
f 41/17/1 42/18/1 43/5/1 44/2/1
f 45/17/1 46/18/1 47/5/1 48/2/1
f 49/17/1 50/18/1 51/5/1 52/2/1
f 53/17/1 54/18/1 55/5/1 56/2/1
f 57/17/1 58/18/1 59/5/1 60/2/1
f 61/17/1 62/18/1 63/5/1 64/2/1
f 65/17/1 66/18/1 67/5/1 68/2/1
f 69/18/1 70/9/1 71/6/1 72/5/1
f 73/19/1 74/20/1 75/10/1 76/9/1
f 77/20/1 78/21/1 79/12/1 80/10/1
f 81/21/1 82/22/1 83/14/1 84/12/1
f 85/23/1 86/24/1 87/17/1 88/16/1
f 89/24/1 90/25/1 91/18/1 92/17/1
f 93/24/1 94/25/1 95/18/1 96/17/1
f 97/24/1 98/25/1 99/18/1 100/17/1
f 101/24/1 102/25/1 103/18/1 104/17/1
f 105/24/1 106/25/1 107/18/1 108/17/1
f 109/24/1 110/25/1 111/18/1 112/17/1
f 113/24/1 114/25/1 115/18/1 116/17/1
f 117/24/1 118/25/1 119/18/1 120/17/1
f 121/24/1 122/25/1 123/18/1 124/17/1
f 125/24/1 126/25/1 127/18/1 128/17/1
f 129/24/1 130/25/1 131/18/1 132/17/1
f 133/25/1 134/19/1 135/9/1 136/18/1
f 137/19/1 138/20/1 139/10/1 140/9/1
f 141/20/1 142/21/1 143/12/1 144/10/1
f 145/21/1 146/22/1 147/14/1 148/12/1
f 149/23/1 150/24/1 151/17/1 152/16/1
f 153/26/1 154/27/1 155/25/1 156/24/1
f 157/26/1 158/27/1 159/25/1 160/24/1
f 161/26/1 162/27/1 163/25/1 164/24/1
f 165/26/1 166/27/1 167/25/1 168/24/1
f 169/26/1 170/27/1 171/25/1 172/24/1
f 173/26/1 174/27/1 175/25/1 176/24/1
f 177/26/1 178/27/1 179/25/1 180/24/1
f 181/26/1 182/27/1 183/25/1 184/24/1
f 185/26/1 186/27/1 187/25/1 188/24/1
f 189/26/1 190/27/1 191/25/1 192/24/1
f 193/26/1 194/27/1 195/25/1 196/24/1
f 197/25/1 198/19/1 199/9/1 200/18/1
f 201/19/1 202/20/1 203/10/1 204/9/1
f 205/20/1 206/21/1 207/12/1 208/10/1
f 209/21/1 210/22/1 211/14/1 212/12/1
f 213/23/1 214/24/1 215/17/1 216/16/1
f 217/27/1 218/28/1 219/19/1 220/25/1
f 221/26/1 222/27/1 223/25/1 224/24/1
f 225/26/1 226/27/1 227/25/1 228/24/1
f 229/26/1 230/27/1 231/25/1 232/24/1
f 233/26/1 234/27/1 235/25/1 236/24/1
f 237/26/1 238/27/1 239/25/1 240/24/1
f 241/26/1 242/27/1 243/25/1 244/24/1
f 245/26/1 246/27/1 247/25/1 248/24/1
f 249/26/1 250/27/1 251/25/1 252/24/1
f 253/26/1 254/27/1 255/25/1 256/24/1
f 257/26/1 258/27/1 259/25/1 260/24/1
f 261/25/1 262/19/1 263/9/1 264/18/1
f 265/19/1 266/20/1 267/10/1 268/9/1
f 269/20/1 270/21/1 271/12/1 272/10/1
f 273/21/1 274/22/1 275/14/1 276/12/1
f 277/23/1 278/24/1 279/17/1 280/16/1
f 281/29/1 282/30/1 283/28/1 284/27/1
f 285/31/1 286/29/1 287/27/1 288/26/1
f 289/31/1 290/29/1 291/27/1 292/26/1
f 293/31/1 294/29/1 295/27/1 296/26/1
f 297/31/1 298/29/1 299/27/1 300/26/1
f 301/31/1 302/29/1 303/27/1 304/26/1
f 305/31/1 306/29/1 307/27/1 308/26/1
f 309/31/1 310/29/1 311/27/1 312/26/1
f 313/31/1 314/29/1 315/27/1 316/26/1
f 317/31/1 318/29/1 319/27/1 320/26/1
f 321/31/1 322/29/1 323/27/1 324/26/1
f 325/25/1 326/19/1 327/9/1 328/18/1
f 329/19/1 330/20/1 331/10/1 332/9/1
f 333/20/1 334/21/1 335/12/1 336/10/1
f 337/21/1 338/22/1 339/14/1 340/12/1
f 341/23/1 342/24/1 343/17/1 344/16/1
f 345/32/1 346/33/1 347/30/1 348/29/1
f 349/34/1 350/32/1 351/29/1 352/31/1
f 353/34/1 354/32/1 355/29/1 356/31/1
f 357/34/1 358/32/1 359/29/1 360/31/1
f 361/34/1 362/32/1 363/29/1 364/31/1
f 365/34/1 366/32/1 367/29/1 368/31/1
f 369/34/1 370/32/1 371/29/1 372/31/1
f 373/34/1 374/32/1 375/29/1 376/31/1
f 377/34/1 378/32/1 379/29/1 380/31/1
f 381/34/1 382/32/1 383/29/1 384/31/1
f 385/34/1 386/32/1 387/29/1 388/31/1
f 389/25/1 390/19/1 391/9/1 392/18/1
f 393/19/1 394/20/1 395/10/1 396/9/1
f 397/20/1 398/21/1 399/12/1 400/10/1
f 401/21/1 402/22/1 403/14/1 404/12/1
f 405/23/1 406/24/1 407/17/1 408/16/1
f 409/27/1 410/28/1 411/19/1 412/25/1
f 413/26/1 414/27/1 415/25/1 416/24/1
f 417/27/1 418/28/1 419/19/1 420/25/1
f 421/35/1 422/36/1 423/37/1 424/38/1
f 425/36/1 426/39/1 427/40/1 428/37/1
f 429/39/1 430/41/1 431/42/1 432/40/1
f 433/26/1 434/27/1 435/25/1 436/24/1
f 437/27/1 438/28/1 439/19/1 440/25/1
f 441/26/1 442/27/1 443/25/1 444/24/1
f 445/27/1 446/28/1 447/19/1 448/25/1
f 449/26/1 450/27/1 451/25/1 452/24/1
f 453/25/1 454/19/1 455/9/1 456/18/1
f 457/19/1 458/20/1 459/10/1 460/9/1
f 461/20/1 462/21/1 463/12/1 464/10/1
f 465/21/1 466/22/1 467/14/1 468/12/1
f 469/23/1 470/24/1 471/17/1 472/16/1
f 473/29/1 474/30/1 475/28/1 476/27/1
f 477/31/1 478/29/1 479/27/1 480/26/1
f 481/29/1 482/30/1 483/28/1 484/27/1
f 485/43/1 486/44/1 487/36/1 488/35/1
f 489/44/1 490/45/1 491/39/1 492/36/1
f 493/45/1 494/46/1 495/41/1 496/39/1
f 497/31/1 498/29/1 499/27/1 500/26/1
f 501/29/1 502/30/1 503/28/1 504/27/1
f 505/31/1 506/29/1 507/27/1 508/26/1
f 509/29/1 510/30/1 511/28/1 512/27/1
f 513/31/1 514/29/1 515/27/1 516/26/1
f 517/25/1 518/19/1 519/9/1 520/18/1
f 521/19/1 522/20/1 523/10/1 524/9/1
f 525/20/1 526/21/1 527/12/1 528/10/1
f 529/21/1 530/22/1 531/14/1 532/12/1
f 533/23/1 534/24/1 535/17/1 536/16/1
f 537/32/1 538/33/1 539/30/1 540/29/1
f 541/34/1 542/32/1 543/29/1 544/31/1
f 545/32/1 546/33/1 547/30/1 548/29/1
f 549/47/1 550/48/1 551/44/1 552/43/1
f 553/48/1 554/49/1 555/45/1 556/44/1
f 557/49/1 558/50/1 559/46/1 560/45/1
f 561/34/1 562/32/1 563/29/1 564/31/1
f 565/32/1 566/33/1 567/30/1 568/29/1
f 569/34/1 570/32/1 571/29/1 572/31/1
f 573/32/1 574/33/1 575/30/1 576/29/1
f 577/34/1 578/32/1 579/29/1 580/31/1
f 581/25/1 582/19/1 583/9/1 584/18/1
f 585/28/1 586/51/1 587/20/1 588/19/1
f 589/51/1 590/52/1 591/21/1 592/20/1
f 593/52/1 594/53/1 595/22/1 596/21/1
f 597/54/1 598/55/1 599/48/1 600/47/1
f 601/55/1 602/56/1 603/49/1 604/48/1
f 605/56/1 606/57/1 607/50/1 608/49/1
f 609/58/1 610/59/1 611/55/1 612/54/1
f 613/59/1 614/60/1 615/56/1 616/55/1
f 617/60/1 618/61/1 619/57/1 620/56/1
f 621/58/1 622/59/1 623/55/1 624/54/1
f 625/59/1 626/60/1 627/56/1 628/55/1
f 629/60/1 630/61/1 631/57/1 632/56/1
f 633/58/1 634/59/1 635/55/1 636/54/1
f 637/59/1 638/60/1 639/56/1 640/55/1
f 641/60/1 642/61/1 643/57/1 644/56/1
f 645/62/1 646/63/1 647/59/1 648/58/1
f 649/63/1 650/64/1 651/60/1 652/59/1
f 653/64/1 654/65/1 655/61/1 656/60/1

