# Tiled2Unity generated file. Do not modify by hand.
# Wavefront file for 'Map_second_mesh_0004.obj'

# Vertices (Count = 580)
v -7.36 -3.2 0
v -7.68 -3.2 0
v -7.68 -2.88 0
v -7.36 -2.88 0
v -7.68 -3.2 0
v -8 -3.2 0
v -8 -2.88 0
v -7.68 -2.88 0
v -8 -3.2 0
v -8.32 -3.2 0
v -8.32 -2.88 0
v -8 -2.88 0
v -8.32 -3.2 0
v -8.639999 -3.2 0
v -8.639999 -2.88 0
v -8.32 -2.88 0
v -8.639999 -3.2 0
v -8.96 -3.2 0
v -8.96 -2.88 0
v -8.639999 -2.88 0
v -7.36 -3.52 0
v -7.68 -3.52 0
v -7.68 -3.2 0
v -7.36 -3.2 0
v -7.68 -3.52 0
v -8 -3.52 0
v -8 -3.2 0
v -7.68 -3.2 0
v -8 -3.52 0
v -8.32 -3.52 0
v -8.32 -3.2 0
v -8 -3.2 0
v -8.32 -3.52 0
v -8.639999 -3.52 0
v -8.639999 -3.2 0
v -8.32 -3.2 0
v -8.639999 -3.52 0
v -8.96 -3.52 0
v -8.96 -3.2 0
v -8.639999 -3.2 0
v -7.36 -3.84 0
v -7.68 -3.84 0
v -7.68 -3.52 0
v -7.36 -3.52 0
v -7.68 -3.84 0
v -8 -3.84 0
v -8 -3.52 0
v -7.68 -3.52 0
v -8 -3.84 0
v -8.32 -3.84 0
v -8.32 -3.52 0
v -8 -3.52 0
v -8.32 -3.84 0
v -8.639999 -3.84 0
v -8.639999 -3.52 0
v -8.32 -3.52 0
v -8.639999 -3.84 0
v -8.96 -3.84 0
v -8.96 -3.52 0
v -8.639999 -3.52 0
v -7.36 -4.16 0
v -7.68 -4.16 0
v -7.68 -3.84 0
v -7.36 -3.84 0
v -7.68 -4.16 0
v -8 -4.16 0
v -8 -3.84 0
v -7.68 -3.84 0
v -8 -4.16 0
v -8.32 -4.16 0
v -8.32 -3.84 0
v -8 -3.84 0
v -8.32 -4.16 0
v -8.639999 -4.16 0
v -8.639999 -3.84 0
v -8.32 -3.84 0
v -8.639999 -4.16 0
v -8.96 -4.16 0
v -8.96 -3.84 0
v -8.639999 -3.84 0
v -7.36 -4.48 0
v -7.68 -4.48 0
v -7.68 -4.16 0
v -7.36 -4.16 0
v -7.68 -4.48 0
v -8 -4.48 0
v -8 -4.16 0
v -7.68 -4.16 0
v -8 -4.48 0
v -8.32 -4.48 0
v -8.32 -4.16 0
v -8 -4.16 0
v -8.32 -4.48 0
v -8.639999 -4.48 0
v -8.639999 -4.16 0
v -8.32 -4.16 0
v -8.639999 -4.48 0
v -8.96 -4.48 0
v -8.96 -4.16 0
v -8.639999 -4.16 0
v -0.96 -4.8 0
v -1.28 -4.8 0
v -1.28 -4.48 0
v -0.96 -4.48 0
v -1.28 -4.8 0
v -1.6 -4.8 0
v -1.6 -4.48 0
v -1.28 -4.48 0
v -1.6 -4.8 0
v -1.92 -4.8 0
v -1.92 -4.48 0
v -1.6 -4.48 0
v -1.92 -4.8 0
v -2.24 -4.8 0
v -2.24 -4.48 0
v -1.92 -4.48 0
v -2.24 -4.8 0
v -2.56 -4.8 0
v -2.56 -4.48 0
v -2.24 -4.48 0
v -7.36 -4.8 0
v -7.68 -4.8 0
v -7.68 -4.48 0
v -7.36 -4.48 0
v -7.68 -4.8 0
v -8 -4.8 0
v -8 -4.48 0
v -7.68 -4.48 0
v -8 -4.8 0
v -8.32 -4.8 0
v -8.32 -4.48 0
v -8 -4.48 0
v -8.32 -4.8 0
v -8.639999 -4.8 0
v -8.639999 -4.48 0
v -8.32 -4.48 0
v -8.639999 -4.8 0
v -8.96 -4.8 0
v -8.96 -4.48 0
v -8.639999 -4.48 0
v -0.96 -5.12 0
v -1.28 -5.12 0
v -1.28 -4.8 0
v -0.96 -4.8 0
v -1.28 -5.12 0
v -1.6 -5.12 0
v -1.6 -4.8 0
v -1.28 -4.8 0
v -1.6 -5.12 0
v -1.92 -5.12 0
v -1.92 -4.8 0
v -1.6 -4.8 0
v -1.92 -5.12 0
v -2.24 -5.12 0
v -2.24 -4.8 0
v -1.92 -4.8 0
v -2.24 -5.12 0
v -2.56 -5.12 0
v -2.56 -4.8 0
v -2.24 -4.8 0
v -7.36 -5.12 0
v -7.68 -5.12 0
v -7.68 -4.8 0
v -7.36 -4.8 0
v -7.68 -5.12 0
v -8 -5.12 0
v -8 -4.8 0
v -7.68 -4.8 0
v -8 -5.12 0
v -8.32 -5.12 0
v -8.32 -4.8 0
v -8 -4.8 0
v -8.32 -5.12 0
v -8.639999 -5.12 0
v -8.639999 -4.8 0
v -8.32 -4.8 0
v -8.639999 -5.12 0
v -8.96 -5.12 0
v -8.96 -4.8 0
v -8.639999 -4.8 0
v -0.96 -5.44 0
v -1.28 -5.44 0
v -1.28 -5.12 0
v -0.96 -5.12 0
v -1.28 -5.44 0
v -1.6 -5.44 0
v -1.6 -5.12 0
v -1.28 -5.12 0
v -1.6 -5.44 0
v -1.92 -5.44 0
v -1.92 -5.12 0
v -1.6 -5.12 0
v -1.92 -5.44 0
v -2.24 -5.44 0
v -2.24 -5.12 0
v -1.92 -5.12 0
v -2.24 -5.44 0
v -2.56 -5.44 0
v -2.56 -5.12 0
v -2.24 -5.12 0
v -2.56 -5.44 0
v -2.88 -5.44 0
v -2.88 -5.12 0
v -2.56 -5.12 0
v -2.88 -5.44 0
v -3.2 -5.44 0
v -3.2 -5.12 0
v -2.88 -5.12 0
v -3.2 -5.44 0
v -3.52 -5.44 0
v -3.52 -5.12 0
v -3.2 -5.12 0
v -3.52 -5.44 0
v -3.84 -5.44 0
v -3.84 -5.12 0
v -3.52 -5.12 0
v -3.84 -5.44 0
v -4.16 -5.44 0
v -4.16 -5.12 0
v -3.84 -5.12 0
v -4.16 -5.44 0
v -4.48 -5.44 0
v -4.48 -5.12 0
v -4.16 -5.12 0
v -4.48 -5.44 0
v -4.8 -5.44 0
v -4.8 -5.12 0
v -4.48 -5.12 0
v -4.8 -5.44 0
v -5.12 -5.44 0
v -5.12 -5.12 0
v -4.8 -5.12 0
v -5.12 -5.44 0
v -5.44 -5.44 0
v -5.44 -5.12 0
v -5.12 -5.12 0
v -5.44 -5.44 0
v -5.76 -5.44 0
v -5.76 -5.12 0
v -5.44 -5.12 0
v -5.76 -5.44 0
v -6.08 -5.44 0
v -6.08 -5.12 0
v -5.76 -5.12 0
v -6.08 -5.44 0
v -6.4 -5.44 0
v -6.4 -5.12 0
v -6.08 -5.12 0
v -6.4 -5.44 0
v -6.72 -5.44 0
v -6.72 -5.12 0
v -6.4 -5.12 0
v -6.72 -5.44 0
v -7.04 -5.44 0
v -7.04 -5.12 0
v -6.72 -5.12 0
v -7.04 -5.44 0
v -7.36 -5.44 0
v -7.36 -5.12 0
v -7.04 -5.12 0
v -7.36 -5.44 0
v -7.68 -5.44 0
v -7.68 -5.12 0
v -7.36 -5.12 0
v -7.68 -5.44 0
v -8 -5.44 0
v -8 -5.12 0
v -7.68 -5.12 0
v -8 -5.44 0
v -8.32 -5.44 0
v -8.32 -5.12 0
v -8 -5.12 0
v -8.32 -5.44 0
v -8.639999 -5.44 0
v -8.639999 -5.12 0
v -8.32 -5.12 0
v -8.639999 -5.44 0
v -8.96 -5.44 0
v -8.96 -5.12 0
v -8.639999 -5.12 0
v -0.96 -5.76 0
v -1.28 -5.76 0
v -1.28 -5.44 0
v -0.96 -5.44 0
v -1.28 -5.76 0
v -1.6 -5.76 0
v -1.6 -5.44 0
v -1.28 -5.44 0
v -1.6 -5.76 0
v -1.92 -5.76 0
v -1.92 -5.44 0
v -1.6 -5.44 0
v -1.92 -5.76 0
v -2.24 -5.76 0
v -2.24 -5.44 0
v -1.92 -5.44 0
v -2.24 -5.76 0
v -2.56 -5.76 0
v -2.56 -5.44 0
v -2.24 -5.44 0
v -2.56 -5.76 0
v -2.88 -5.76 0
v -2.88 -5.44 0
v -2.56 -5.44 0
v -2.88 -5.76 0
v -3.2 -5.76 0
v -3.2 -5.44 0
v -2.88 -5.44 0
v -3.2 -5.76 0
v -3.52 -5.76 0
v -3.52 -5.44 0
v -3.2 -5.44 0
v -3.52 -5.76 0
v -3.84 -5.76 0
v -3.84 -5.44 0
v -3.52 -5.44 0
v -3.84 -5.76 0
v -4.16 -5.76 0
v -4.16 -5.44 0
v -3.84 -5.44 0
v -4.16 -5.76 0
v -4.48 -5.76 0
v -4.48 -5.44 0
v -4.16 -5.44 0
v -4.48 -5.76 0
v -4.8 -5.76 0
v -4.8 -5.44 0
v -4.48 -5.44 0
v -4.8 -5.76 0
v -5.12 -5.76 0
v -5.12 -5.44 0
v -4.8 -5.44 0
v -5.12 -5.76 0
v -5.44 -5.76 0
v -5.44 -5.44 0
v -5.12 -5.44 0
v -5.44 -5.76 0
v -5.76 -5.76 0
v -5.76 -5.44 0
v -5.44 -5.44 0
v -5.76 -5.76 0
v -6.08 -5.76 0
v -6.08 -5.44 0
v -5.76 -5.44 0
v -6.08 -5.76 0
v -6.4 -5.76 0
v -6.4 -5.44 0
v -6.08 -5.44 0
v -6.4 -5.76 0
v -6.72 -5.76 0
v -6.72 -5.44 0
v -6.4 -5.44 0
v -6.72 -5.76 0
v -7.04 -5.76 0
v -7.04 -5.44 0
v -6.72 -5.44 0
v -7.04 -5.76 0
v -7.36 -5.76 0
v -7.36 -5.44 0
v -7.04 -5.44 0
v -7.36 -5.76 0
v -7.68 -5.76 0
v -7.68 -5.44 0
v -7.36 -5.44 0
v -7.68 -5.76 0
v -8 -5.76 0
v -8 -5.44 0
v -7.68 -5.44 0
v -8 -5.76 0
v -8.32 -5.76 0
v -8.32 -5.44 0
v -8 -5.44 0
v -8.32 -5.76 0
v -8.639999 -5.76 0
v -8.639999 -5.44 0
v -8.32 -5.44 0
v -8.639999 -5.76 0
v -8.96 -5.76 0
v -8.96 -5.44 0
v -8.639999 -5.44 0
v -0.96 -6.08 0
v -1.28 -6.08 0
v -1.28 -5.76 0
v -0.96 -5.76 0
v -1.28 -6.08 0
v -1.6 -6.08 0
v -1.6 -5.76 0
v -1.28 -5.76 0
v -1.6 -6.08 0
v -1.92 -6.08 0
v -1.92 -5.76 0
v -1.6 -5.76 0
v -1.92 -6.08 0
v -2.24 -6.08 0
v -2.24 -5.76 0
v -1.92 -5.76 0
v -2.24 -6.08 0
v -2.56 -6.08 0
v -2.56 -5.76 0
v -2.24 -5.76 0
v -2.56 -6.08 0
v -2.88 -6.08 0
v -2.88 -5.76 0
v -2.56 -5.76 0
v -2.88 -6.08 0
v -3.2 -6.08 0
v -3.2 -5.76 0
v -2.88 -5.76 0
v -3.2 -6.08 0
v -3.52 -6.08 0
v -3.52 -5.76 0
v -3.2 -5.76 0
v -3.52 -6.08 0
v -3.84 -6.08 0
v -3.84 -5.76 0
v -3.52 -5.76 0
v -3.84 -6.08 0
v -4.16 -6.08 0
v -4.16 -5.76 0
v -3.84 -5.76 0
v -4.16 -6.08 0
v -4.48 -6.08 0
v -4.48 -5.76 0
v -4.16 -5.76 0
v -4.48 -6.08 0
v -4.8 -6.08 0
v -4.8 -5.76 0
v -4.48 -5.76 0
v -4.8 -6.08 0
v -5.12 -6.08 0
v -5.12 -5.76 0
v -4.8 -5.76 0
v -5.12 -6.08 0
v -5.44 -6.08 0
v -5.44 -5.76 0
v -5.12 -5.76 0
v -5.44 -6.08 0
v -5.76 -6.08 0
v -5.76 -5.76 0
v -5.44 -5.76 0
v -5.76 -6.08 0
v -6.08 -6.08 0
v -6.08 -5.76 0
v -5.76 -5.76 0
v -6.08 -6.08 0
v -6.4 -6.08 0
v -6.4 -5.76 0
v -6.08 -5.76 0
v -6.4 -6.08 0
v -6.72 -6.08 0
v -6.72 -5.76 0
v -6.4 -5.76 0
v -6.72 -6.08 0
v -7.04 -6.08 0
v -7.04 -5.76 0
v -6.72 -5.76 0
v -7.04 -6.08 0
v -7.36 -6.08 0
v -7.36 -5.76 0
v -7.04 -5.76 0
v -7.36 -6.08 0
v -7.68 -6.08 0
v -7.68 -5.76 0
v -7.36 -5.76 0
v -7.68 -6.08 0
v -8 -6.08 0
v -8 -5.76 0
v -7.68 -5.76 0
v -8 -6.08 0
v -8.32 -6.08 0
v -8.32 -5.76 0
v -8 -5.76 0
v -8.32 -6.08 0
v -8.639999 -6.08 0
v -8.639999 -5.76 0
v -8.32 -5.76 0
v -8.639999 -6.08 0
v -8.96 -6.08 0
v -8.96 -5.76 0
v -8.639999 -5.76 0
v -0.96 -6.4 0
v -1.28 -6.4 0
v -1.28 -6.08 0
v -0.96 -6.08 0
v -1.28 -6.4 0
v -1.6 -6.4 0
v -1.6 -6.08 0
v -1.28 -6.08 0
v -1.6 -6.4 0
v -1.92 -6.4 0
v -1.92 -6.08 0
v -1.6 -6.08 0
v -1.92 -6.4 0
v -2.24 -6.4 0
v -2.24 -6.08 0
v -1.92 -6.08 0
v -2.24 -6.4 0
v -2.56 -6.4 0
v -2.56 -6.08 0
v -2.24 -6.08 0
v -2.56 -6.4 0
v -2.88 -6.4 0
v -2.88 -6.08 0
v -2.56 -6.08 0
v -2.88 -6.4 0
v -3.2 -6.4 0
v -3.2 -6.08 0
v -2.88 -6.08 0
v -3.2 -6.4 0
v -3.52 -6.4 0
v -3.52 -6.08 0
v -3.2 -6.08 0
v -3.52 -6.4 0
v -3.84 -6.4 0
v -3.84 -6.08 0
v -3.52 -6.08 0
v -3.84 -6.4 0
v -4.16 -6.4 0
v -4.16 -6.08 0
v -3.84 -6.08 0
v -4.16 -6.4 0
v -4.48 -6.4 0
v -4.48 -6.08 0
v -4.16 -6.08 0
v -4.48 -6.4 0
v -4.8 -6.4 0
v -4.8 -6.08 0
v -4.48 -6.08 0
v -4.8 -6.4 0
v -5.12 -6.4 0
v -5.12 -6.08 0
v -4.8 -6.08 0
v -5.12 -6.4 0
v -5.44 -6.4 0
v -5.44 -6.08 0
v -5.12 -6.08 0
v -5.44 -6.4 0
v -5.76 -6.4 0
v -5.76 -6.08 0
v -5.44 -6.08 0
v -5.76 -6.4 0
v -6.08 -6.4 0
v -6.08 -6.08 0
v -5.76 -6.08 0
v -6.08 -6.4 0
v -6.4 -6.4 0
v -6.4 -6.08 0
v -6.08 -6.08 0
v -6.4 -6.4 0
v -6.72 -6.4 0
v -6.72 -6.08 0
v -6.4 -6.08 0
v -6.72 -6.4 0
v -7.04 -6.4 0
v -7.04 -6.08 0
v -6.72 -6.08 0
v -7.04 -6.4 0
v -7.36 -6.4 0
v -7.36 -6.08 0
v -7.04 -6.08 0
v -7.36 -6.4 0
v -7.68 -6.4 0
v -7.68 -6.08 0
v -7.36 -6.08 0
v -7.68 -6.4 0
v -8 -6.4 0
v -8 -6.08 0
v -7.68 -6.08 0
v -8 -6.4 0
v -8.32 -6.4 0
v -8.32 -6.08 0
v -8 -6.08 0
v -8.32 -6.4 0
v -8.639999 -6.4 0
v -8.639999 -6.08 0
v -8.32 -6.08 0
v -8.639999 -6.4 0
v -8.96 -6.4 0
v -8.96 -6.08 0
v -8.639999 -6.08 0

# Texture cooridinates (Count = 20)
vt 0.375 0.3125
vt 0.4375 0.3125
vt 0.4375 0.375
vt 0.375 0.375
vt 0.5 0.3125
vt 0.5 0.375
vt 0.5625 0.3125
vt 0.5625 0.375
vt 0.375 0.25
vt 0.4375 0.25
vt 0.5 0.25
vt 0.5625 0.25
vt 0.625 0.25
vt 0.625 0.3125
vt 0.6875 0.25
vt 0.6875 0.3125
vt 0.375 0.1875
vt 0.4375 0.1875
vt 0.5 0.1875
vt 0.5625 0.1875

# Normal
vn 0 0 -1

# Mesh description
g Map_second_mesh_0004

# Faces
f 1/1/1 2/2/1 3/3/1 4/4/1
f 5/2/1 6/5/1 7/6/1 8/3/1
f 9/2/1 10/5/1 11/6/1 12/3/1
f 13/2/1 14/5/1 15/6/1 16/3/1
f 17/5/1 18/7/1 19/8/1 20/6/1
f 21/9/1 22/10/1 23/2/1 24/1/1
f 25/10/1 26/11/1 27/5/1 28/2/1
f 29/10/1 30/11/1 31/5/1 32/2/1
f 33/10/1 34/11/1 35/5/1 36/2/1
f 37/11/1 38/12/1 39/7/1 40/5/1
f 41/9/1 42/10/1 43/2/1 44/1/1
f 45/10/1 46/11/1 47/5/1 48/2/1
f 49/10/1 50/11/1 51/5/1 52/2/1
f 53/10/1 54/11/1 55/5/1 56/2/1
f 57/11/1 58/12/1 59/7/1 60/5/1
f 61/9/1 62/10/1 63/2/1 64/1/1
f 65/10/1 66/11/1 67/5/1 68/2/1
f 69/10/1 70/11/1 71/5/1 72/2/1
f 73/10/1 74/11/1 75/5/1 76/2/1
f 77/11/1 78/12/1 79/7/1 80/5/1
f 81/9/1 82/10/1 83/2/1 84/1/1
f 85/10/1 86/11/1 87/5/1 88/2/1
f 89/10/1 90/11/1 91/5/1 92/2/1
f 93/10/1 94/11/1 95/5/1 96/2/1
f 97/11/1 98/12/1 99/7/1 100/5/1
f 101/1/1 102/2/1 103/3/1 104/4/1
f 105/2/1 106/5/1 107/6/1 108/3/1
f 109/2/1 110/5/1 111/6/1 112/3/1
f 113/2/1 114/5/1 115/6/1 116/3/1
f 117/5/1 118/7/1 119/8/1 120/6/1
f 121/9/1 122/10/1 123/2/1 124/1/1
f 125/10/1 126/11/1 127/5/1 128/2/1
f 129/10/1 130/11/1 131/5/1 132/2/1
f 133/10/1 134/11/1 135/5/1 136/2/1
f 137/11/1 138/12/1 139/7/1 140/5/1
f 141/9/1 142/10/1 143/2/1 144/1/1
f 145/10/1 146/11/1 147/5/1 148/2/1
f 149/10/1 150/11/1 151/5/1 152/2/1
f 153/10/1 154/11/1 155/5/1 156/2/1
f 157/11/1 158/12/1 159/7/1 160/5/1
f 161/9/1 162/10/1 163/2/1 164/1/1
f 165/10/1 166/11/1 167/5/1 168/2/1
f 169/10/1 170/11/1 171/5/1 172/2/1
f 173/10/1 174/11/1 175/5/1 176/2/1
f 177/11/1 178/12/1 179/7/1 180/5/1
f 181/9/1 182/10/1 183/2/1 184/1/1
f 185/10/1 186/11/1 187/5/1 188/2/1
f 189/10/1 190/11/1 191/5/1 192/2/1
f 193/10/1 194/11/1 195/5/1 196/2/1
f 197/12/1 198/13/1 199/14/1 200/7/1
f 201/2/1 202/5/1 203/6/1 204/3/1
f 205/2/1 206/5/1 207/6/1 208/3/1
f 209/2/1 210/5/1 211/6/1 212/3/1
f 213/2/1 214/5/1 215/6/1 216/3/1
f 217/2/1 218/5/1 219/6/1 220/3/1
f 221/2/1 222/5/1 223/6/1 224/3/1
f 225/2/1 226/5/1 227/6/1 228/3/1
f 229/2/1 230/5/1 231/6/1 232/3/1
f 233/2/1 234/5/1 235/6/1 236/3/1
f 237/2/1 238/5/1 239/6/1 240/3/1
f 241/2/1 242/5/1 243/6/1 244/3/1
f 245/2/1 246/5/1 247/6/1 248/3/1
f 249/2/1 250/5/1 251/6/1 252/3/1
f 253/2/1 254/5/1 255/6/1 256/3/1
f 257/2/1 258/5/1 259/6/1 260/3/1
f 261/13/1 262/15/1 263/16/1 264/14/1
f 265/10/1 266/11/1 267/5/1 268/2/1
f 269/10/1 270/11/1 271/5/1 272/2/1
f 273/10/1 274/11/1 275/5/1 276/2/1
f 277/11/1 278/12/1 279/7/1 280/5/1
f 281/9/1 282/10/1 283/2/1 284/1/1
f 285/10/1 286/11/1 287/5/1 288/2/1
f 289/10/1 290/11/1 291/5/1 292/2/1
f 293/10/1 294/11/1 295/5/1 296/2/1
f 297/10/1 298/11/1 299/5/1 300/2/1
f 301/10/1 302/11/1 303/5/1 304/2/1
f 305/10/1 306/11/1 307/5/1 308/2/1
f 309/10/1 310/11/1 311/5/1 312/2/1
f 313/10/1 314/11/1 315/5/1 316/2/1
f 317/10/1 318/11/1 319/5/1 320/2/1
f 321/10/1 322/11/1 323/5/1 324/2/1
f 325/10/1 326/11/1 327/5/1 328/2/1
f 329/10/1 330/11/1 331/5/1 332/2/1
f 333/10/1 334/11/1 335/5/1 336/2/1
f 337/10/1 338/11/1 339/5/1 340/2/1
f 341/10/1 342/11/1 343/5/1 344/2/1
f 345/10/1 346/11/1 347/5/1 348/2/1
f 349/10/1 350/11/1 351/5/1 352/2/1
f 353/10/1 354/11/1 355/5/1 356/2/1
f 357/10/1 358/11/1 359/5/1 360/2/1
f 361/10/1 362/11/1 363/5/1 364/2/1
f 365/10/1 366/11/1 367/5/1 368/2/1
f 369/10/1 370/11/1 371/5/1 372/2/1
f 373/10/1 374/11/1 375/5/1 376/2/1
f 377/11/1 378/12/1 379/7/1 380/5/1
f 381/9/1 382/10/1 383/2/1 384/1/1
f 385/10/1 386/11/1 387/5/1 388/2/1
f 389/10/1 390/11/1 391/5/1 392/2/1
f 393/10/1 394/11/1 395/5/1 396/2/1
f 397/10/1 398/11/1 399/5/1 400/2/1
f 401/10/1 402/11/1 403/5/1 404/2/1
f 405/10/1 406/11/1 407/5/1 408/2/1
f 409/10/1 410/11/1 411/5/1 412/2/1
f 413/10/1 414/11/1 415/5/1 416/2/1
f 417/10/1 418/11/1 419/5/1 420/2/1
f 421/10/1 422/11/1 423/5/1 424/2/1
f 425/10/1 426/11/1 427/5/1 428/2/1
f 429/10/1 430/11/1 431/5/1 432/2/1
f 433/10/1 434/11/1 435/5/1 436/2/1
f 437/10/1 438/11/1 439/5/1 440/2/1
f 441/10/1 442/11/1 443/5/1 444/2/1
f 445/10/1 446/11/1 447/5/1 448/2/1
f 449/10/1 450/11/1 451/5/1 452/2/1
f 453/10/1 454/11/1 455/5/1 456/2/1
f 457/10/1 458/11/1 459/5/1 460/2/1
f 461/10/1 462/11/1 463/5/1 464/2/1
f 465/10/1 466/11/1 467/5/1 468/2/1
f 469/10/1 470/11/1 471/5/1 472/2/1
f 473/10/1 474/11/1 475/5/1 476/2/1
f 477/11/1 478/12/1 479/7/1 480/5/1
f 481/17/1 482/18/1 483/10/1 484/9/1
f 485/18/1 486/19/1 487/11/1 488/10/1
f 489/18/1 490/19/1 491/11/1 492/10/1
f 493/18/1 494/19/1 495/11/1 496/10/1
f 497/18/1 498/19/1 499/11/1 500/10/1
f 501/18/1 502/19/1 503/11/1 504/10/1
f 505/18/1 506/19/1 507/11/1 508/10/1
f 509/18/1 510/19/1 511/11/1 512/10/1
f 513/18/1 514/19/1 515/11/1 516/10/1
f 517/18/1 518/19/1 519/11/1 520/10/1
f 521/18/1 522/19/1 523/11/1 524/10/1
f 525/18/1 526/19/1 527/11/1 528/10/1
f 529/18/1 530/19/1 531/11/1 532/10/1
f 533/18/1 534/19/1 535/11/1 536/10/1
f 537/18/1 538/19/1 539/11/1 540/10/1
f 541/18/1 542/19/1 543/11/1 544/10/1
f 545/18/1 546/19/1 547/11/1 548/10/1
f 549/18/1 550/19/1 551/11/1 552/10/1
f 553/18/1 554/19/1 555/11/1 556/10/1
f 557/18/1 558/19/1 559/11/1 560/10/1
f 561/18/1 562/19/1 563/11/1 564/10/1
f 565/18/1 566/19/1 567/11/1 568/10/1
f 569/18/1 570/19/1 571/11/1 572/10/1
f 573/18/1 574/19/1 575/11/1 576/10/1
f 577/19/1 578/20/1 579/12/1 580/11/1

