# Tiled2Unity generated file. Do not modify by hand.
# Wavefront file for 'Map_second_mesh_0009.obj'

# Vertices (Count = 20)
v -8.639999 -4.16 0
v -8.96 -4.16 0
v -8.96 -3.84 0
v -8.639999 -3.84 0
v -8.96 -4.16 0
v -9.28 -4.16 0
v -9.28 -3.84 0
v -8.96 -3.84 0
v -9.28 -4.16 0
v -9.599999 -4.16 0
v -9.599999 -3.84 0
v -9.28 -3.84 0
v -9.599999 -4.16 0
v -9.92 -4.16 0
v -9.92 -3.84 0
v -9.599999 -3.84 0
v -9.92 -4.16 0
v -10.24 -4.16 0
v -10.24 -3.84 0
v -9.92 -3.84 0

# Texture cooridinates (Count = 12)
vt 0 0.7
vt 0.0625 0.7
vt 0.0625 0.8
vt 0 0.8
vt 0.125 0.7
vt 0.125 0.8
vt 0.1875 0.7
vt 0.1875 0.8
vt 0.25 0.7
vt 0.25 0.8
vt 0.3125 0.7
vt 0.3125 0.8

# Normal
vn 0 0 -1

# Mesh description
g Map_second_mesh_0009

# Faces
f 1/1/1 2/2/1 3/3/1 4/4/1
f 5/2/1 6/5/1 7/6/1 8/3/1
f 9/5/1 10/7/1 11/8/1 12/6/1
f 13/7/1 14/9/1 15/10/1 16/8/1
f 17/9/1 18/11/1 19/12/1 20/10/1

