# Tiled2Unity generated file. Do not modify by hand.
# Wavefront file for 'Map_second_mesh_0008.obj'

# Vertices (Count = 80)
v -8.639999 -3.2 0
v -8.96 -3.2 0
v -8.96 -2.88 0
v -8.639999 -2.88 0
v -8.96 -3.2 0
v -9.28 -3.2 0
v -9.28 -2.88 0
v -8.96 -2.88 0
v -9.28 -3.2 0
v -9.599999 -3.2 0
v -9.599999 -2.88 0
v -9.28 -2.88 0
v -9.599999 -3.2 0
v -9.92 -3.2 0
v -9.92 -2.88 0
v -9.599999 -2.88 0
v -9.92 -3.2 0
v -10.24 -3.2 0
v -10.24 -2.88 0
v -9.92 -2.88 0
v -8.639999 -3.52 0
v -8.96 -3.52 0
v -8.96 -3.2 0
v -8.639999 -3.2 0
v -8.96 -3.52 0
v -9.28 -3.52 0
v -9.28 -3.2 0
v -8.96 -3.2 0
v -9.28 -3.52 0
v -9.599999 -3.52 0
v -9.599999 -3.2 0
v -9.28 -3.2 0
v -9.599999 -3.52 0
v -9.92 -3.52 0
v -9.92 -3.2 0
v -9.599999 -3.2 0
v -9.92 -3.52 0
v -10.24 -3.52 0
v -10.24 -3.2 0
v -9.92 -3.2 0
v -8.639999 -3.84 0
v -8.96 -3.84 0
v -8.96 -3.52 0
v -8.639999 -3.52 0
v -8.96 -3.84 0
v -9.28 -3.84 0
v -9.28 -3.52 0
v -8.96 -3.52 0
v -9.28 -3.84 0
v -9.599999 -3.84 0
v -9.599999 -3.52 0
v -9.28 -3.52 0
v -9.599999 -3.84 0
v -9.92 -3.84 0
v -9.92 -3.52 0
v -9.599999 -3.52 0
v -9.92 -3.84 0
v -10.24 -3.84 0
v -10.24 -3.52 0
v -9.92 -3.52 0
v -8.639999 -4.16 0
v -8.96 -4.16 0
v -8.96 -3.84 0
v -8.639999 -3.84 0
v -8.96 -4.16 0
v -9.28 -4.16 0
v -9.28 -3.84 0
v -8.96 -3.84 0
v -9.28 -4.16 0
v -9.599999 -4.16 0
v -9.599999 -3.84 0
v -9.28 -3.84 0
v -9.599999 -4.16 0
v -9.92 -4.16 0
v -9.92 -3.84 0
v -9.599999 -3.84 0
v -9.92 -4.16 0
v -10.24 -4.16 0
v -10.24 -3.84 0
v -9.92 -3.84 0

# Texture cooridinates (Count = 17)
vt 0 0.9
vt 0.0625 0.9
vt 0.0625 1
vt 0 1
vt 0.125 0.9
vt 0.125 1
vt 0.1875 0.9
vt 0.1875 1
vt 0.25 0.9
vt 0.25 1
vt 0.3125 0.9
vt 0.3125 1
vt 0.0625 0.8
vt 0.125 0.8
vt 0.1875 0.8
vt 0.25 0.8
vt 0.3125 0.8

# Normal
vn 0 0 -1

# Mesh description
g Map_second_mesh_0008

# Faces
f 1/1/1 2/2/1 3/3/1 4/4/1
f 5/2/1 6/5/1 7/6/1 8/3/1
f 9/5/1 10/7/1 11/8/1 12/6/1
f 13/7/1 14/9/1 15/10/1 16/8/1
f 17/9/1 18/11/1 19/12/1 20/10/1
f 21/13/1 22/14/1 23/5/1 24/2/1
f 25/13/1 26/14/1 27/5/1 28/2/1
f 29/14/1 30/15/1 31/7/1 32/5/1
f 33/15/1 34/16/1 35/9/1 36/7/1
f 37/16/1 38/17/1 39/11/1 40/9/1
f 41/13/1 42/14/1 43/5/1 44/2/1
f 45/13/1 46/14/1 47/5/1 48/2/1
f 49/13/1 50/14/1 51/5/1 52/2/1
f 53/13/1 54/14/1 55/5/1 56/2/1
f 57/13/1 58/14/1 59/5/1 60/2/1
f 61/13/1 62/14/1 63/5/1 64/2/1
f 65/13/1 66/14/1 67/5/1 68/2/1
f 69/13/1 70/14/1 71/5/1 72/2/1
f 73/13/1 74/14/1 75/5/1 76/2/1
f 77/13/1 78/14/1 79/5/1 80/2/1

