# Tiled2Unity generated file. Do not modify by hand.
# Wavefront file for 'Map_second_mesh_0006.obj'

# Vertices (Count = 96)
v -4.48 -0.64 0
v -4.8 -0.64 0
v -4.8 -0.32 0
v -4.48 -0.32 0
v -0.64 -0.96 0
v -0.96 -0.96 0
v -0.96 -0.64 0
v -0.64 -0.64 0
v -1.28 -0.96 0
v -1.6 -0.96 0
v -1.6 -0.64 0
v -1.28 -0.64 0
v -1.92 -0.96 0
v -2.24 -0.96 0
v -2.24 -0.64 0
v -1.92 -0.64 0
v -2.56 -0.96 0
v -2.88 -0.96 0
v -2.88 -0.64 0
v -2.56 -0.64 0
v -4.48 -0.96 0
v -4.8 -0.96 0
v -4.8 -0.64 0
v -4.48 -0.64 0
v -0.64 -1.28 0
v -0.96 -1.28 0
v -0.96 -0.96 0
v -0.64 -0.96 0
v -1.28 -1.28 0
v -1.6 -1.28 0
v -1.6 -0.96 0
v -1.28 -0.96 0
v -1.92 -1.28 0
v -2.24 -1.28 0
v -2.24 -0.96 0
v -1.92 -0.96 0
v -2.56 -1.28 0
v -2.88 -1.28 0
v -2.88 -0.96 0
v -2.56 -0.96 0
v -4.48 -1.28 0
v -4.8 -1.28 0
v -4.8 -0.96 0
v -4.48 -0.96 0
v -3.2 -1.6 0
v -3.52 -1.6 0
v -3.52 -1.28 0
v -3.2 -1.28 0
v -4.48 -1.6 0
v -4.8 -1.6 0
v -4.8 -1.28 0
v -4.48 -1.28 0
v -0.64 -1.92 0
v -0.96 -1.92 0
v -0.96 -1.6 0
v -0.64 -1.6 0
v -1.28 -1.92 0
v -1.6 -1.92 0
v -1.6 -1.6 0
v -1.28 -1.6 0
v -1.92 -1.92 0
v -2.24 -1.92 0
v -2.24 -1.6 0
v -1.92 -1.6 0
v -2.56 -1.92 0
v -2.88 -1.92 0
v -2.88 -1.6 0
v -2.56 -1.6 0
v -3.2 -1.92 0
v -3.52 -1.92 0
v -3.52 -1.6 0
v -3.2 -1.6 0
v -4.48 -1.92 0
v -4.8 -1.92 0
v -4.8 -1.6 0
v -4.48 -1.6 0
v -0.64 -2.24 0
v -0.96 -2.24 0
v -0.96 -1.92 0
v -0.64 -1.92 0
v -1.28 -2.24 0
v -1.6 -2.24 0
v -1.6 -1.92 0
v -1.28 -1.92 0
v -1.92 -2.24 0
v -2.24 -2.24 0
v -2.24 -1.92 0
v -1.92 -1.92 0
v -2.56 -2.24 0
v -2.88 -2.24 0
v -2.88 -1.92 0
v -2.56 -1.92 0
v -4.48 -2.24 0
v -4.8 -2.24 0
v -4.8 -1.92 0
v -4.48 -1.92 0

# Texture cooridinates (Count = 15)
vt 0.2666667 0.7
vt 0.3333333 0.7
vt 0.3333333 0.8
vt 0.2666667 0.8
vt 0.4 0.7
vt 0.4 0.8
vt 0.2666667 0.6
vt 0.3333333 0.6
vt 0.4 0.6
vt 0.9333333 0.6
vt 1 0.6
vt 1 0.7
vt 0.9333333 0.7
vt 0.9333333 0.5
vt 1 0.5

# Normal
vn 0 0 -1

# Mesh description
g Map_second_mesh_0006

# Faces
f 1/1/1 2/2/1 3/3/1 4/4/1
f 5/2/1 6/5/1 7/6/1 8/3/1
f 9/2/1 10/5/1 11/6/1 12/3/1
f 13/2/1 14/5/1 15/6/1 16/3/1
f 17/2/1 18/5/1 19/6/1 20/3/1
f 21/7/1 22/8/1 23/2/1 24/1/1
f 25/8/1 26/9/1 27/5/1 28/2/1
f 29/8/1 30/9/1 31/5/1 32/2/1
f 33/8/1 34/9/1 35/5/1 36/2/1
f 37/8/1 38/9/1 39/5/1 40/2/1
f 41/1/1 42/2/1 43/3/1 44/4/1
f 45/10/1 46/11/1 47/12/1 48/13/1
f 49/7/1 50/8/1 51/2/1 52/1/1
f 53/2/1 54/5/1 55/6/1 56/3/1
f 57/2/1 58/5/1 59/6/1 60/3/1
f 61/2/1 62/5/1 63/6/1 64/3/1
f 65/2/1 66/5/1 67/6/1 68/3/1
f 69/14/1 70/15/1 71/11/1 72/10/1
f 73/1/1 74/2/1 75/3/1 76/4/1
f 77/8/1 78/9/1 79/5/1 80/2/1
f 81/8/1 82/9/1 83/5/1 84/2/1
f 85/8/1 86/9/1 87/5/1 88/2/1
f 89/8/1 90/9/1 91/5/1 92/2/1
f 93/7/1 94/8/1 95/2/1 96/1/1

