# Tiled2Unity generated file. Do not modify by hand.
# Wavefront file for 'Map_third_mesh_0007.obj'

# Vertices (Count = 68)
v -3.84 -6.08 0
v -4.16 -6.08 0
v -4.16 -5.76 0
v -3.84 -5.76 0
v -4.16 -6.08 0
v -4.48 -6.08 0
v -4.48 -5.76 0
v -4.16 -5.76 0
v -4.48 -6.08 0
v -4.8 -6.08 0
v -4.8 -5.76 0
v -4.48 -5.76 0
v -3.84 -6.4 0
v -4.16 -6.4 0
v -4.16 -6.08 0
v -3.84 -6.08 0
v -4.16 -6.4 0
v -4.48 -6.4 0
v -4.48 -6.08 0
v -4.16 -6.08 0
v -4.48 -6.4 0
v -4.8 -6.4 0
v -4.8 -6.08 0
v -4.48 -6.08 0
v -3.84 -6.72 0
v -4.16 -6.72 0
v -4.16 -6.4 0
v -3.84 -6.4 0
v -4.16 -6.72 0
v -4.48 -6.72 0
v -4.48 -6.4 0
v -4.16 -6.4 0
v -4.48 -6.72 0
v -4.8 -6.72 0
v -4.8 -6.4 0
v -4.48 -6.4 0
v -3.84 -7.04 0
v -4.16 -7.04 0
v -4.16 -6.72 0
v -3.84 -6.72 0
v -4.16 -7.04 0
v -4.48 -7.04 0
v -4.48 -6.72 0
v -4.16 -6.72 0
v -4.48 -7.04 0
v -4.8 -7.04 0
v -4.8 -6.72 0
v -4.48 -6.72 0
v -4.8 -7.04 0
v -5.12 -7.04 0
v -5.12 -6.72 0
v -4.8 -6.72 0
v -3.84 -7.36 0
v -4.16 -7.36 0
v -4.16 -7.04 0
v -3.84 -7.04 0
v -4.16 -7.36 0
v -4.48 -7.36 0
v -4.48 -7.04 0
v -4.16 -7.04 0
v -4.48 -7.36 0
v -4.8 -7.36 0
v -4.8 -7.04 0
v -4.48 -7.04 0
v -4.8 -7.36 0
v -5.12 -7.36 0
v -5.12 -7.04 0
v -4.8 -7.04 0

# Texture cooridinates (Count = 31)
vt 0.6666667 0.8
vt 0.7142857 0.8
vt 0.7142857 0.85
vt 0.6666667 0.85
vt 0.7619048 0.8
vt 0.7619048 0.85
vt 0.8095238 0.8
vt 0.8095238 0.85
vt 0.6666667 0.75
vt 0.7142857 0.75
vt 0.7619048 0.75
vt 0.8095238 0.75
vt 0.6666667 0.7
vt 0.7142857 0.7
vt 0.7619048 0.7
vt 0.8095238 0.7
vt 0.5238096 0.25
vt 0.5714286 0.25
vt 0.5714286 0.3
vt 0.5238096 0.3
vt 0.6190476 0.25
vt 0.6190476 0.3
vt 0.6666667 0.25
vt 0.6666667 0.3
vt 0.7142857 0.25
vt 0.7142857 0.3
vt 0.5238096 0.2
vt 0.5714286 0.2
vt 0.6190476 0.2
vt 0.6666667 0.2
vt 0.7142857 0.2

# Normal
vn 0 0 -1

# Mesh description
g Map_third_mesh_0007

# Faces
f 1/1/1 2/2/1 3/3/1 4/4/1
f 5/2/1 6/5/1 7/6/1 8/3/1
f 9/5/1 10/7/1 11/8/1 12/6/1
f 13/9/1 14/10/1 15/2/1 16/1/1
f 17/10/1 18/11/1 19/5/1 20/2/1
f 21/11/1 22/12/1 23/7/1 24/5/1
f 25/13/1 26/14/1 27/10/1 28/9/1
f 29/14/1 30/15/1 31/11/1 32/10/1
f 33/15/1 34/16/1 35/12/1 36/11/1
f 37/17/1 38/18/1 39/19/1 40/20/1
f 41/18/1 42/21/1 43/22/1 44/19/1
f 45/21/1 46/23/1 47/24/1 48/22/1
f 49/23/1 50/25/1 51/26/1 52/24/1
f 53/27/1 54/28/1 55/18/1 56/17/1
f 57/28/1 58/29/1 59/21/1 60/18/1
f 61/29/1 62/30/1 63/23/1 64/21/1
f 65/30/1 66/31/1 67/25/1 68/23/1

