# Tiled2Unity generated file. Do not modify by hand.
# Wavefront file for 'Map_third_mesh_0006.obj'

# Vertices (Count = 64)
v -6.4 -3.52 0
v -6.72 -3.52 0
v -6.72 -3.2 0
v -6.4 -3.2 0
v -6.72 -3.52 0
v -7.04 -3.52 0
v -7.04 -3.2 0
v -6.72 -3.2 0
v -7.04 -3.52 0
v -7.36 -3.52 0
v -7.36 -3.2 0
v -7.04 -3.2 0
v -7.36 -3.52 0
v -7.68 -3.52 0
v -7.68 -3.2 0
v -7.36 -3.2 0
v -7.68 -3.52 0
v -8 -3.52 0
v -8 -3.2 0
v -7.68 -3.2 0
v -8 -3.52 0
v -8.32 -3.52 0
v -8.32 -3.2 0
v -8 -3.2 0
v -8.32 -3.52 0
v -8.639999 -3.52 0
v -8.639999 -3.2 0
v -8.32 -3.2 0
v -8.639999 -3.52 0
v -8.96 -3.52 0
v -8.96 -3.2 0
v -8.639999 -3.2 0
v -6.4 -3.84 0
v -6.72 -3.84 0
v -6.72 -3.52 0
v -6.4 -3.52 0
v -6.72 -3.84 0
v -7.04 -3.84 0
v -7.04 -3.52 0
v -6.72 -3.52 0
v -7.04 -3.84 0
v -7.36 -3.84 0
v -7.36 -3.52 0
v -7.04 -3.52 0
v -7.36 -3.84 0
v -7.68 -3.84 0
v -7.68 -3.52 0
v -7.36 -3.52 0
v -7.68 -3.84 0
v -8 -3.84 0
v -8 -3.52 0
v -7.68 -3.52 0
v -8 -3.84 0
v -8.32 -3.84 0
v -8.32 -3.52 0
v -8 -3.52 0
v -8.32 -3.84 0
v -8.639999 -3.84 0
v -8.639999 -3.52 0
v -8.32 -3.52 0
v -8.639999 -3.84 0
v -8.96 -3.84 0
v -8.96 -3.52 0
v -8.639999 -3.52 0

# Texture cooridinates (Count = 28)
vt 0.5 0.125
vt 0.5625 0.125
vt 0.5625 0.1875
vt 0.5 0.1875
vt 0.625 0.125
vt 0.625 0.1875
vt 0.6875 0.125
vt 0.6875 0.1875
vt 0.75 0.125
vt 0.75 0.1875
vt 0.25 0.0625
vt 0.3125 0.0625
vt 0.3125 0.125
vt 0.25 0.125
vt 0.375 0.0625
vt 0.375 0.125
vt 0.4375 0.0625
vt 0.4375 0.125
vt 0.5 0.0625
vt 0.5625 0.0625
vt 0.625 0.0625
vt 0.6875 0.0625
vt 0.75 0.0625
vt 0.25 0
vt 0.3125 0
vt 0.375 0
vt 0.4375 0
vt 0.5 0

# Normal
vn 0 0 -1

# Mesh description
g Map_third_mesh_0006

# Faces
f 1/1/1 2/2/1 3/3/1 4/4/1
f 5/2/1 6/5/1 7/6/1 8/3/1
f 9/5/1 10/7/1 11/8/1 12/6/1
f 13/7/1 14/9/1 15/10/1 16/8/1
f 17/11/1 18/12/1 19/13/1 20/14/1
f 21/12/1 22/15/1 23/16/1 24/13/1
f 25/15/1 26/17/1 27/18/1 28/16/1
f 29/17/1 30/19/1 31/1/1 32/18/1
f 33/19/1 34/20/1 35/2/1 36/1/1
f 37/20/1 38/21/1 39/5/1 40/2/1
f 41/21/1 42/22/1 43/7/1 44/5/1
f 45/22/1 46/23/1 47/9/1 48/7/1
f 49/24/1 50/25/1 51/12/1 52/11/1
f 53/25/1 54/26/1 55/15/1 56/12/1
f 57/26/1 58/27/1 59/17/1 60/15/1
f 61/27/1 62/28/1 63/19/1 64/17/1

