# Tiled2Unity generated file. Do not modify by hand.
# Wavefront file for 'Map_third_mesh_0008.obj'

# Vertices (Count = 48)
v 0 -3.2 0
v -0.32 -3.2 0
v -0.32 -2.88 0
v 0 -2.88 0
v -0.32 -3.2 0
v -0.64 -3.2 0
v -0.64 -2.88 0
v -0.32 -2.88 0
v -0.64 -3.2 0
v -0.96 -3.2 0
v -0.96 -2.88 0
v -0.64 -2.88 0
v 0 -3.52 0
v -0.32 -3.52 0
v -0.32 -3.2 0
v 0 -3.2 0
v -0.32 -3.52 0
v -0.64 -3.52 0
v -0.64 -3.2 0
v -0.32 -3.2 0
v -0.64 -3.52 0
v -0.96 -3.52 0
v -0.96 -3.2 0
v -0.64 -3.2 0
v 0 -3.84 0
v -0.32 -3.84 0
v -0.32 -3.52 0
v 0 -3.52 0
v -0.32 -3.84 0
v -0.64 -3.84 0
v -0.64 -3.52 0
v -0.32 -3.52 0
v -0.64 -3.84 0
v -0.96 -3.84 0
v -0.96 -3.52 0
v -0.64 -3.52 0
v 0 -4.16 0
v -0.32 -4.16 0
v -0.32 -3.84 0
v 0 -3.84 0
v -0.32 -4.16 0
v -0.64 -4.16 0
v -0.64 -3.84 0
v -0.32 -3.84 0
v -0.64 -4.16 0
v -0.96 -4.16 0
v -0.96 -3.84 0
v -0.64 -3.84 0

# Texture cooridinates (Count = 11)
vt 0.4375 0.9
vt 0.5 0.9
vt 0.5 1
vt 0.4375 1
vt 0.5625 0.9
vt 0.5625 1
vt 0.625 0.9
vt 0.625 1
vt 0.4375 0.8
vt 0.5 0.8
vt 0.5625 0.8

# Normal
vn 0 0 -1

# Mesh description
g Map_third_mesh_0008

# Faces
f 1/1/1 2/2/1 3/3/1 4/4/1
f 5/2/1 6/5/1 7/6/1 8/3/1
f 9/5/1 10/7/1 11/8/1 12/6/1
f 13/9/1 14/10/1 15/2/1 16/1/1
f 17/10/1 18/11/1 19/5/1 20/2/1
f 21/10/1 22/11/1 23/5/1 24/2/1
f 25/9/1 26/10/1 27/2/1 28/1/1
f 29/10/1 30/11/1 31/5/1 32/2/1
f 33/10/1 34/11/1 35/5/1 36/2/1
f 37/10/1 38/11/1 39/5/1 40/2/1
f 41/10/1 42/11/1 43/5/1 44/2/1
f 45/10/1 46/11/1 47/5/1 48/2/1

