# Tiled2Unity generated file. Do not modify by hand.
# Wavefront file for 'Map_third_mesh_0002.obj'

# Vertices (Count = 192)
v 0 -0.32 0
v -0.32 -0.32 0
v -0.32 0 0
v 0 0 0
v -0.32 -0.32 0
v -0.64 -0.32 0
v -0.64 0 0
v -0.32 0 0
v 0 -0.64 0
v -0.32 -0.64 0
v -0.32 -0.32 0
v 0 -0.32 0
v -0.32 -0.64 0
v -0.64 -0.64 0
v -0.64 -0.32 0
v -0.32 -0.32 0
v 0 -0.96 0
v -0.32 -0.96 0
v -0.32 -0.64 0
v 0 -0.64 0
v -0.32 -0.96 0
v -0.64 -0.96 0
v -0.64 -0.64 0
v -0.32 -0.64 0
v 0 -1.28 0
v -0.32 -1.28 0
v -0.32 -0.96 0
v 0 -0.96 0
v -0.32 -1.28 0
v -0.64 -1.28 0
v -0.64 -0.96 0
v -0.32 -0.96 0
v 0 -1.6 0
v -0.32 -1.6 0
v -0.32 -1.28 0
v 0 -1.28 0
v -0.32 -1.6 0
v -0.64 -1.6 0
v -0.64 -1.28 0
v -0.32 -1.28 0
v 0 -1.92 0
v -0.32 -1.92 0
v -0.32 -1.6 0
v 0 -1.6 0
v -0.32 -1.92 0
v -0.64 -1.92 0
v -0.64 -1.6 0
v -0.32 -1.6 0
v 0 -2.24 0
v -0.32 -2.24 0
v -0.32 -1.92 0
v 0 -1.92 0
v -0.32 -2.24 0
v -0.64 -2.24 0
v -0.64 -1.92 0
v -0.32 -1.92 0
v 0 -2.56 0
v -0.32 -2.56 0
v -0.32 -2.24 0
v 0 -2.24 0
v -0.32 -2.56 0
v -0.64 -2.56 0
v -0.64 -2.24 0
v -0.32 -2.24 0
v 0 -2.88 0
v -0.32 -2.88 0
v -0.32 -2.56 0
v 0 -2.56 0
v -0.32 -2.88 0
v -0.64 -2.88 0
v -0.64 -2.56 0
v -0.32 -2.56 0
v 0 -3.2 0
v -0.32 -3.2 0
v -0.32 -2.88 0
v 0 -2.88 0
v -0.32 -3.2 0
v -0.64 -3.2 0
v -0.64 -2.88 0
v -0.32 -2.88 0
v 0 -3.52 0
v -0.32 -3.52 0
v -0.32 -3.2 0
v 0 -3.2 0
v -0.32 -3.52 0
v -0.64 -3.52 0
v -0.64 -3.2 0
v -0.32 -3.2 0
v 0 -3.84 0
v -0.32 -3.84 0
v -0.32 -3.52 0
v 0 -3.52 0
v -0.32 -3.84 0
v -0.64 -3.84 0
v -0.64 -3.52 0
v -0.32 -3.52 0
v 0 -4.16 0
v -0.32 -4.16 0
v -0.32 -3.84 0
v 0 -3.84 0
v -0.32 -4.16 0
v -0.64 -4.16 0
v -0.64 -3.84 0
v -0.32 -3.84 0
v 0 -4.48 0
v -0.32 -4.48 0
v -0.32 -4.16 0
v 0 -4.16 0
v -0.32 -4.48 0
v -0.64 -4.48 0
v -0.64 -4.16 0
v -0.32 -4.16 0
v 0 -4.8 0
v -0.32 -4.8 0
v -0.32 -4.48 0
v 0 -4.48 0
v -0.32 -4.8 0
v -0.64 -4.8 0
v -0.64 -4.48 0
v -0.32 -4.48 0
v 0 -5.12 0
v -0.32 -5.12 0
v -0.32 -4.8 0
v 0 -4.8 0
v -0.32 -5.12 0
v -0.64 -5.12 0
v -0.64 -4.8 0
v -0.32 -4.8 0
v 0 -5.44 0
v -0.32 -5.44 0
v -0.32 -5.12 0
v 0 -5.12 0
v -0.32 -5.44 0
v -0.64 -5.44 0
v -0.64 -5.12 0
v -0.32 -5.12 0
v 0 -5.76 0
v -0.32 -5.76 0
v -0.32 -5.44 0
v 0 -5.44 0
v -0.32 -5.76 0
v -0.64 -5.76 0
v -0.64 -5.44 0
v -0.32 -5.44 0
v 0 -6.08 0
v -0.32 -6.08 0
v -0.32 -5.76 0
v 0 -5.76 0
v -0.32 -6.08 0
v -0.64 -6.08 0
v -0.64 -5.76 0
v -0.32 -5.76 0
v 0 -6.4 0
v -0.32 -6.4 0
v -0.32 -6.08 0
v 0 -6.08 0
v -0.32 -6.4 0
v -0.64 -6.4 0
v -0.64 -6.08 0
v -0.32 -6.08 0
v 0 -6.72 0
v -0.32 -6.72 0
v -0.32 -6.4 0
v 0 -6.4 0
v -0.32 -6.72 0
v -0.64 -6.72 0
v -0.64 -6.4 0
v -0.32 -6.4 0
v 0 -7.04 0
v -0.32 -7.04 0
v -0.32 -6.72 0
v 0 -6.72 0
v -0.32 -7.04 0
v -0.64 -7.04 0
v -0.64 -6.72 0
v -0.32 -6.72 0
v 0 -7.36 0
v -0.32 -7.36 0
v -0.32 -7.04 0
v 0 -7.04 0
v -0.32 -7.36 0
v -0.64 -7.36 0
v -0.64 -7.04 0
v -0.32 -7.04 0
v 0 -7.68 0
v -0.32 -7.68 0
v -0.32 -7.36 0
v 0 -7.36 0
v -0.32 -7.68 0
v -0.64 -7.68 0
v -0.64 -7.36 0
v -0.32 -7.36 0

# Texture cooridinates (Count = 6)
vt 0.3333333 0.3333333
vt 0.6666667 0.3333333
vt 0.6666667 0.5
vt 0.3333333 0.5
vt 1 0.3333333
vt 1 0.5

# Normal
vn 0 0 -1

# Mesh description
g Map_third_mesh_0002

# Faces
f 1/1/1 2/2/1 3/3/1 4/4/1
f 5/2/1 6/5/1 7/6/1 8/3/1
f 9/1/1 10/2/1 11/3/1 12/4/1
f 13/2/1 14/5/1 15/6/1 16/3/1
f 17/1/1 18/2/1 19/3/1 20/4/1
f 21/2/1 22/5/1 23/6/1 24/3/1
f 25/1/1 26/2/1 27/3/1 28/4/1
f 29/2/1 30/5/1 31/6/1 32/3/1
f 33/1/1 34/2/1 35/3/1 36/4/1
f 37/2/1 38/5/1 39/6/1 40/3/1
f 41/1/1 42/2/1 43/3/1 44/4/1
f 45/2/1 46/5/1 47/6/1 48/3/1
f 49/1/1 50/2/1 51/3/1 52/4/1
f 53/2/1 54/5/1 55/6/1 56/3/1
f 57/1/1 58/2/1 59/3/1 60/4/1
f 61/2/1 62/5/1 63/6/1 64/3/1
f 65/1/1 66/2/1 67/3/1 68/4/1
f 69/2/1 70/5/1 71/6/1 72/3/1
f 73/1/1 74/2/1 75/3/1 76/4/1
f 77/2/1 78/5/1 79/6/1 80/3/1
f 81/1/1 82/2/1 83/3/1 84/4/1
f 85/2/1 86/5/1 87/6/1 88/3/1
f 89/1/1 90/2/1 91/3/1 92/4/1
f 93/2/1 94/5/1 95/6/1 96/3/1
f 97/1/1 98/2/1 99/3/1 100/4/1
f 101/2/1 102/5/1 103/6/1 104/3/1
f 105/1/1 106/2/1 107/3/1 108/4/1
f 109/2/1 110/5/1 111/6/1 112/3/1
f 113/1/1 114/2/1 115/3/1 116/4/1
f 117/2/1 118/5/1 119/6/1 120/3/1
f 121/1/1 122/2/1 123/3/1 124/4/1
f 125/2/1 126/5/1 127/6/1 128/3/1
f 129/1/1 130/2/1 131/3/1 132/4/1
f 133/2/1 134/5/1 135/6/1 136/3/1
f 137/1/1 138/2/1 139/3/1 140/4/1
f 141/2/1 142/5/1 143/6/1 144/3/1
f 145/1/1 146/2/1 147/3/1 148/4/1
f 149/2/1 150/5/1 151/6/1 152/3/1
f 153/1/1 154/2/1 155/3/1 156/4/1
f 157/2/1 158/5/1 159/6/1 160/3/1
f 161/1/1 162/2/1 163/3/1 164/4/1
f 165/2/1 166/5/1 167/6/1 168/3/1
f 169/1/1 170/2/1 171/3/1 172/4/1
f 173/2/1 174/5/1 175/6/1 176/3/1
f 177/1/1 178/2/1 179/3/1 180/4/1
f 181/2/1 182/5/1 183/6/1 184/3/1
f 185/1/1 186/2/1 187/3/1 188/4/1
f 189/2/1 190/5/1 191/6/1 192/3/1

