# Tiled2Unity generated file. Do not modify by hand.
# Wavefront file for 'Map_third_mesh_0010.obj'

# Vertices (Count = 288)
v -7.04 -0.32 0
v -7.36 -0.32 0
v -7.36 0 0
v -7.04 0 0
v -7.36 -0.32 0
v -7.68 -0.32 0
v -7.68 0 0
v -7.36 0 0
v -7.68 -0.32 0
v -8 -0.32 0
v -8 0 0
v -7.68 0 0
v -4.48 -0.64 0
v -4.8 -0.64 0
v -4.8 -0.32 0
v -4.48 -0.32 0
v -4.8 -0.64 0
v -5.12 -0.64 0
v -5.12 -0.32 0
v -4.8 -0.32 0
v -5.12 -0.64 0
v -5.44 -0.64 0
v -5.44 -0.32 0
v -5.12 -0.32 0
v -6.08 -0.64 0
v -6.4 -0.64 0
v -6.4 -0.32 0
v -6.08 -0.32 0
v -6.4 -0.64 0
v -6.72 -0.64 0
v -6.72 -0.32 0
v -6.4 -0.32 0
v -6.72 -0.64 0
v -7.04 -0.64 0
v -7.04 -0.32 0
v -6.72 -0.32 0
v -7.04 -0.64 0
v -7.36 -0.64 0
v -7.36 -0.32 0
v -7.04 -0.32 0
v -7.36 -0.64 0
v -7.68 -0.64 0
v -7.68 -0.32 0
v -7.36 -0.32 0
v -7.68 -0.64 0
v -8 -0.64 0
v -8 -0.32 0
v -7.68 -0.32 0
v -4.48 -0.96 0
v -4.8 -0.96 0
v -4.8 -0.64 0
v -4.48 -0.64 0
v -4.8 -0.96 0
v -5.12 -0.96 0
v -5.12 -0.64 0
v -4.8 -0.64 0
v -5.12 -0.96 0
v -5.44 -0.96 0
v -5.44 -0.64 0
v -5.12 -0.64 0
v -6.08 -0.96 0
v -6.4 -0.96 0
v -6.4 -0.64 0
v -6.08 -0.64 0
v -6.4 -0.96 0
v -6.72 -0.96 0
v -6.72 -0.64 0
v -6.4 -0.64 0
v -6.72 -0.96 0
v -7.04 -0.96 0
v -7.04 -0.64 0
v -6.72 -0.64 0
v -7.04 -0.96 0
v -7.36 -0.96 0
v -7.36 -0.64 0
v -7.04 -0.64 0
v -7.36 -0.96 0
v -7.68 -0.96 0
v -7.68 -0.64 0
v -7.36 -0.64 0
v -7.68 -0.96 0
v -8 -0.96 0
v -8 -0.64 0
v -7.68 -0.64 0
v -4.48 -1.28 0
v -4.8 -1.28 0
v -4.8 -0.96 0
v -4.48 -0.96 0
v -4.8 -1.28 0
v -5.12 -1.28 0
v -5.12 -0.96 0
v -4.8 -0.96 0
v -5.12 -1.28 0
v -5.44 -1.28 0
v -5.44 -0.96 0
v -5.12 -0.96 0
v -6.08 -1.28 0
v -6.4 -1.28 0
v -6.4 -0.96 0
v -6.08 -0.96 0
v -6.4 -1.28 0
v -6.72 -1.28 0
v -6.72 -0.96 0
v -6.4 -0.96 0
v -6.72 -1.28 0
v -7.04 -1.28 0
v -7.04 -0.96 0
v -6.72 -0.96 0
v -4.8 -1.92 0
v -5.12 -1.92 0
v -5.12 -1.6 0
v -4.8 -1.6 0
v -5.12 -1.92 0
v -5.44 -1.92 0
v -5.44 -1.6 0
v -5.12 -1.6 0
v -5.44 -1.92 0
v -5.76 -1.92 0
v -5.76 -1.6 0
v -5.44 -1.6 0
v -4.8 -2.24 0
v -5.12 -2.24 0
v -5.12 -1.92 0
v -4.8 -1.92 0
v -5.12 -2.24 0
v -5.44 -2.24 0
v -5.44 -1.92 0
v -5.12 -1.92 0
v -5.44 -2.24 0
v -5.76 -2.24 0
v -5.76 -1.92 0
v -5.44 -1.92 0
v -4.8 -2.56 0
v -5.12 -2.56 0
v -5.12 -2.24 0
v -4.8 -2.24 0
v -5.12 -2.56 0
v -5.44 -2.56 0
v -5.44 -2.24 0
v -5.12 -2.24 0
v -5.44 -2.56 0
v -5.76 -2.56 0
v -5.76 -2.24 0
v -5.44 -2.24 0
v -0.64 -4.8 0
v -0.96 -4.8 0
v -0.96 -4.48 0
v -0.64 -4.48 0
v -0.96 -4.8 0
v -1.28 -4.8 0
v -1.28 -4.48 0
v -0.96 -4.48 0
v -1.28 -4.8 0
v -1.6 -4.8 0
v -1.6 -4.48 0
v -1.28 -4.48 0
v -4.8 -4.8 0
v -5.12 -4.8 0
v -5.12 -4.48 0
v -4.8 -4.48 0
v -5.12 -4.8 0
v -5.44 -4.8 0
v -5.44 -4.48 0
v -5.12 -4.48 0
v -5.44 -4.8 0
v -5.76 -4.8 0
v -5.76 -4.48 0
v -5.44 -4.48 0
v -6.08 -4.8 0
v -6.4 -4.8 0
v -6.4 -4.48 0
v -6.08 -4.48 0
v -6.4 -4.8 0
v -6.72 -4.8 0
v -6.72 -4.48 0
v -6.4 -4.48 0
v -6.72 -4.8 0
v -7.04 -4.8 0
v -7.04 -4.48 0
v -6.72 -4.48 0
v -0.64 -5.12 0
v -0.96 -5.12 0
v -0.96 -4.8 0
v -0.64 -4.8 0
v -0.96 -5.12 0
v -1.28 -5.12 0
v -1.28 -4.8 0
v -0.96 -4.8 0
v -1.28 -5.12 0
v -1.6 -5.12 0
v -1.6 -4.8 0
v -1.28 -4.8 0
v -4.8 -5.12 0
v -5.12 -5.12 0
v -5.12 -4.8 0
v -4.8 -4.8 0
v -5.12 -5.12 0
v -5.44 -5.12 0
v -5.44 -4.8 0
v -5.12 -4.8 0
v -5.44 -5.12 0
v -5.76 -5.12 0
v -5.76 -4.8 0
v -5.44 -4.8 0
v -6.08 -5.12 0
v -6.4 -5.12 0
v -6.4 -4.8 0
v -6.08 -4.8 0
v -6.4 -5.12 0
v -6.72 -5.12 0
v -6.72 -4.8 0
v -6.4 -4.8 0
v -6.72 -5.12 0
v -7.04 -5.12 0
v -7.04 -4.8 0
v -6.72 -4.8 0
v -0.64 -5.44 0
v -0.96 -5.44 0
v -0.96 -5.12 0
v -0.64 -5.12 0
v -0.96 -5.44 0
v -1.28 -5.44 0
v -1.28 -5.12 0
v -0.96 -5.12 0
v -1.28 -5.44 0
v -1.6 -5.44 0
v -1.6 -5.12 0
v -1.28 -5.12 0
v -4.8 -5.44 0
v -5.12 -5.44 0
v -5.12 -5.12 0
v -4.8 -5.12 0
v -5.12 -5.44 0
v -5.44 -5.44 0
v -5.44 -5.12 0
v -5.12 -5.12 0
v -5.44 -5.44 0
v -5.76 -5.44 0
v -5.76 -5.12 0
v -5.44 -5.12 0
v -6.08 -5.44 0
v -6.4 -5.44 0
v -6.4 -5.12 0
v -6.08 -5.12 0
v -6.4 -5.44 0
v -6.72 -5.44 0
v -6.72 -5.12 0
v -6.4 -5.12 0
v -6.72 -5.44 0
v -7.04 -5.44 0
v -7.04 -5.12 0
v -6.72 -5.12 0
v -1.28 -5.76 0
v -1.6 -5.76 0
v -1.6 -5.44 0
v -1.28 -5.44 0
v -1.6 -5.76 0
v -1.92 -5.76 0
v -1.92 -5.44 0
v -1.6 -5.44 0
v -1.92 -5.76 0
v -2.24 -5.76 0
v -2.24 -5.44 0
v -1.92 -5.44 0
v -1.28 -6.08 0
v -1.6 -6.08 0
v -1.6 -5.76 0
v -1.28 -5.76 0
v -1.6 -6.08 0
v -1.92 -6.08 0
v -1.92 -5.76 0
v -1.6 -5.76 0
v -1.92 -6.08 0
v -2.24 -6.08 0
v -2.24 -5.76 0
v -1.92 -5.76 0
v -1.28 -6.4 0
v -1.6 -6.4 0
v -1.6 -6.08 0
v -1.28 -6.08 0
v -1.6 -6.4 0
v -1.92 -6.4 0
v -1.92 -6.08 0
v -1.6 -6.08 0
v -1.92 -6.4 0
v -2.24 -6.4 0
v -2.24 -6.08 0
v -1.92 -6.08 0

# Texture cooridinates (Count = 28)
vt 0.2307692 0.6153846
vt 0.3076923 0.6153846
vt 0.3076923 0.6923077
vt 0.2307692 0.6923077
vt 0.3846154 0.6153846
vt 0.3846154 0.6923077
vt 0.4615385 0.6153846
vt 0.4615385 0.6923077
vt 0.5384616 0.6153846
vt 0.5384616 0.6923077
vt 0.6153846 0.6153846
vt 0.6153846 0.6923077
vt 0.6923077 0.6153846
vt 0.6923077 0.6923077
vt 0.2307692 0.5384616
vt 0.3076923 0.5384616
vt 0.3846154 0.5384616
vt 0.4615385 0.5384616
vt 0.5384616 0.5384616
vt 0.6153846 0.5384616
vt 0.6923077 0.5384616
vt 0.2307692 0.4615384
vt 0.3076923 0.4615384
vt 0.3846154 0.4615384
vt 0.4615385 0.4615384
vt 0.5384616 0.4615384
vt 0.6153846 0.4615384
vt 0.6923077 0.4615384

# Normal
vn 0 0 -1

# Mesh description
g Map_third_mesh_0010

# Faces
f 1/1/1 2/2/1 3/3/1 4/4/1
f 5/2/1 6/5/1 7/6/1 8/3/1
f 9/5/1 10/7/1 11/8/1 12/6/1
f 13/1/1 14/2/1 15/3/1 16/4/1
f 17/2/1 18/5/1 19/6/1 20/3/1
f 21/5/1 22/7/1 23/8/1 24/6/1
f 25/7/1 26/9/1 27/10/1 28/8/1
f 29/9/1 30/11/1 31/12/1 32/10/1
f 33/11/1 34/13/1 35/14/1 36/12/1
f 37/15/1 38/16/1 39/2/1 40/1/1
f 41/16/1 42/17/1 43/5/1 44/2/1
f 45/17/1 46/18/1 47/7/1 48/5/1
f 49/15/1 50/16/1 51/2/1 52/1/1
f 53/16/1 54/17/1 55/5/1 56/2/1
f 57/17/1 58/18/1 59/7/1 60/5/1
f 61/18/1 62/19/1 63/9/1 64/7/1
f 65/19/1 66/20/1 67/11/1 68/9/1
f 69/20/1 70/21/1 71/13/1 72/11/1
f 73/22/1 74/23/1 75/16/1 76/15/1
f 77/23/1 78/24/1 79/17/1 80/16/1
f 81/24/1 82/25/1 83/18/1 84/17/1
f 85/22/1 86/23/1 87/16/1 88/15/1
f 89/23/1 90/24/1 91/17/1 92/16/1
f 93/24/1 94/25/1 95/18/1 96/17/1
f 97/25/1 98/26/1 99/19/1 100/18/1
f 101/26/1 102/27/1 103/20/1 104/19/1
f 105/27/1 106/28/1 107/21/1 108/20/1
f 109/7/1 110/9/1 111/10/1 112/8/1
f 113/9/1 114/11/1 115/12/1 116/10/1
f 117/11/1 118/13/1 119/14/1 120/12/1
f 121/18/1 122/19/1 123/9/1 124/7/1
f 125/19/1 126/20/1 127/11/1 128/9/1
f 129/20/1 130/21/1 131/13/1 132/11/1
f 133/25/1 134/26/1 135/19/1 136/18/1
f 137/26/1 138/27/1 139/20/1 140/19/1
f 141/27/1 142/28/1 143/21/1 144/20/1
f 145/7/1 146/9/1 147/10/1 148/8/1
f 149/9/1 150/11/1 151/12/1 152/10/1
f 153/11/1 154/13/1 155/14/1 156/12/1
f 157/7/1 158/9/1 159/10/1 160/8/1
f 161/9/1 162/11/1 163/12/1 164/10/1
f 165/11/1 166/13/1 167/14/1 168/12/1
f 169/1/1 170/2/1 171/3/1 172/4/1
f 173/2/1 174/5/1 175/6/1 176/3/1
f 177/5/1 178/7/1 179/8/1 180/6/1
f 181/18/1 182/19/1 183/9/1 184/7/1
f 185/19/1 186/20/1 187/11/1 188/9/1
f 189/20/1 190/21/1 191/13/1 192/11/1
f 193/18/1 194/19/1 195/9/1 196/7/1
f 197/19/1 198/20/1 199/11/1 200/9/1
f 201/20/1 202/21/1 203/13/1 204/11/1
f 205/15/1 206/16/1 207/2/1 208/1/1
f 209/16/1 210/17/1 211/5/1 212/2/1
f 213/17/1 214/18/1 215/7/1 216/5/1
f 217/25/1 218/26/1 219/19/1 220/18/1
f 221/26/1 222/27/1 223/20/1 224/19/1
f 225/27/1 226/28/1 227/21/1 228/20/1
f 229/25/1 230/26/1 231/19/1 232/18/1
f 233/26/1 234/27/1 235/20/1 236/19/1
f 237/27/1 238/28/1 239/21/1 240/20/1
f 241/22/1 242/23/1 243/16/1 244/15/1
f 245/23/1 246/24/1 247/17/1 248/16/1
f 249/24/1 250/25/1 251/18/1 252/17/1
f 253/1/1 254/2/1 255/3/1 256/4/1
f 257/2/1 258/5/1 259/6/1 260/3/1
f 261/5/1 262/7/1 263/8/1 264/6/1
f 265/15/1 266/16/1 267/2/1 268/1/1
f 269/16/1 270/17/1 271/5/1 272/2/1
f 273/17/1 274/18/1 275/7/1 276/5/1
f 277/22/1 278/23/1 279/16/1 280/15/1
f 281/23/1 282/24/1 283/17/1 284/16/1
f 285/24/1 286/25/1 287/18/1 288/17/1

