# Tiled2Unity generated file. Do not modify by hand.
# Wavefront file for 'Map_third_mesh_0005.obj'

# Vertices (Count = 240)
v -0.64 -1.28 0
v -0.96 -1.28 0
v -0.96 -0.96 0
v -0.64 -0.96 0
v -0.96 -1.28 0
v -1.28 -1.28 0
v -1.28 -0.96 0
v -0.96 -0.96 0
v -4.48 -1.28 0
v -4.8 -1.28 0
v -4.8 -0.96 0
v -4.48 -0.96 0
v -4.8 -1.28 0
v -5.12 -1.28 0
v -5.12 -0.96 0
v -4.8 -0.96 0
v -5.12 -1.28 0
v -5.44 -1.28 0
v -5.44 -0.96 0
v -5.12 -0.96 0
v -7.04 -1.28 0
v -7.36 -1.28 0
v -7.36 -0.96 0
v -7.04 -0.96 0
v -7.36 -1.28 0
v -7.68 -1.28 0
v -7.68 -0.96 0
v -7.36 -0.96 0
v -7.68 -1.28 0
v -8 -1.28 0
v -8 -0.96 0
v -7.68 -0.96 0
v -0.64 -1.6 0
v -0.96 -1.6 0
v -0.96 -1.28 0
v -0.64 -1.28 0
v -0.96 -1.6 0
v -1.28 -1.6 0
v -1.28 -1.28 0
v -0.96 -1.28 0
v -4.48 -1.6 0
v -4.8 -1.6 0
v -4.8 -1.28 0
v -4.48 -1.28 0
v -4.8 -1.6 0
v -5.12 -1.6 0
v -5.12 -1.28 0
v -4.8 -1.28 0
v -5.12 -1.6 0
v -5.44 -1.6 0
v -5.44 -1.28 0
v -5.12 -1.28 0
v -6.08 -1.6 0
v -6.4 -1.6 0
v -6.4 -1.28 0
v -6.08 -1.28 0
v -6.4 -1.6 0
v -6.72 -1.6 0
v -6.72 -1.28 0
v -6.4 -1.28 0
v -6.72 -1.6 0
v -7.04 -1.6 0
v -7.04 -1.28 0
v -6.72 -1.28 0
v -7.04 -1.6 0
v -7.36 -1.6 0
v -7.36 -1.28 0
v -7.04 -1.28 0
v -7.36 -1.6 0
v -7.68 -1.6 0
v -7.68 -1.28 0
v -7.36 -1.28 0
v -7.68 -1.6 0
v -8 -1.6 0
v -8 -1.28 0
v -7.68 -1.28 0
v -1.28 -1.92 0
v -1.6 -1.92 0
v -1.6 -1.6 0
v -1.28 -1.6 0
v -1.6 -1.92 0
v -1.92 -1.92 0
v -1.92 -1.6 0
v -1.6 -1.6 0
v -6.08 -1.92 0
v -6.4 -1.92 0
v -6.4 -1.6 0
v -6.08 -1.6 0
v -6.4 -1.92 0
v -6.72 -1.92 0
v -6.72 -1.6 0
v -6.4 -1.6 0
v -6.72 -1.92 0
v -7.04 -1.92 0
v -7.04 -1.6 0
v -6.72 -1.6 0
v -1.28 -2.24 0
v -1.6 -2.24 0
v -1.6 -1.92 0
v -1.28 -1.92 0
v -1.6 -2.24 0
v -1.92 -2.24 0
v -1.92 -1.92 0
v -1.6 -1.92 0
v -0.96 -2.56 0
v -1.28 -2.56 0
v -1.28 -2.24 0
v -0.96 -2.24 0
v -1.28 -2.56 0
v -1.6 -2.56 0
v -1.6 -2.24 0
v -1.28 -2.24 0
v -4.8 -2.56 0
v -5.12 -2.56 0
v -5.12 -2.24 0
v -4.8 -2.24 0
v -5.12 -2.56 0
v -5.44 -2.56 0
v -5.44 -2.24 0
v -5.12 -2.24 0
v -5.44 -2.56 0
v -5.76 -2.56 0
v -5.76 -2.24 0
v -5.44 -2.24 0
v -0.96 -2.88 0
v -1.28 -2.88 0
v -1.28 -2.56 0
v -0.96 -2.56 0
v -1.28 -2.88 0
v -1.6 -2.88 0
v -1.6 -2.56 0
v -1.28 -2.56 0
v -4.8 -2.88 0
v -5.12 -2.88 0
v -5.12 -2.56 0
v -4.8 -2.56 0
v -5.12 -2.88 0
v -5.44 -2.88 0
v -5.44 -2.56 0
v -5.12 -2.56 0
v -5.44 -2.88 0
v -5.76 -2.88 0
v -5.76 -2.56 0
v -5.44 -2.56 0
v -4.8 -5.44 0
v -5.12 -5.44 0
v -5.12 -5.12 0
v -4.8 -5.12 0
v -5.12 -5.44 0
v -5.44 -5.44 0
v -5.44 -5.12 0
v -5.12 -5.12 0
v -5.44 -5.44 0
v -5.76 -5.44 0
v -5.76 -5.12 0
v -5.44 -5.12 0
v -6.08 -5.44 0
v -6.4 -5.44 0
v -6.4 -5.12 0
v -6.08 -5.12 0
v -6.4 -5.44 0
v -6.72 -5.44 0
v -6.72 -5.12 0
v -6.4 -5.12 0
v -6.72 -5.44 0
v -7.04 -5.44 0
v -7.04 -5.12 0
v -6.72 -5.12 0
v -0.64 -5.76 0
v -0.96 -5.76 0
v -0.96 -5.44 0
v -0.64 -5.44 0
v -0.96 -5.76 0
v -1.28 -5.76 0
v -1.28 -5.44 0
v -0.96 -5.44 0
v -1.28 -5.76 0
v -1.6 -5.76 0
v -1.6 -5.44 0
v -1.28 -5.44 0
v -4.8 -5.76 0
v -5.12 -5.76 0
v -5.12 -5.44 0
v -4.8 -5.44 0
v -5.12 -5.76 0
v -5.44 -5.76 0
v -5.44 -5.44 0
v -5.12 -5.44 0
v -5.44 -5.76 0
v -5.76 -5.76 0
v -5.76 -5.44 0
v -5.44 -5.44 0
v -6.08 -5.76 0
v -6.4 -5.76 0
v -6.4 -5.44 0
v -6.08 -5.44 0
v -6.4 -5.76 0
v -6.72 -5.76 0
v -6.72 -5.44 0
v -6.4 -5.44 0
v -6.72 -5.76 0
v -7.04 -5.76 0
v -7.04 -5.44 0
v -6.72 -5.44 0
v -0.64 -6.08 0
v -0.96 -6.08 0
v -0.96 -5.76 0
v -0.64 -5.76 0
v -0.96 -6.08 0
v -1.28 -6.08 0
v -1.28 -5.76 0
v -0.96 -5.76 0
v -1.28 -6.08 0
v -1.6 -6.08 0
v -1.6 -5.76 0
v -1.28 -5.76 0
v -1.28 -6.72 0
v -1.6 -6.72 0
v -1.6 -6.4 0
v -1.28 -6.4 0
v -1.6 -6.72 0
v -1.92 -6.72 0
v -1.92 -6.4 0
v -1.6 -6.4 0
v -1.92 -6.72 0
v -2.24 -6.72 0
v -2.24 -6.4 0
v -1.92 -6.4 0
v -1.28 -7.04 0
v -1.6 -7.04 0
v -1.6 -6.72 0
v -1.28 -6.72 0
v -1.6 -7.04 0
v -1.92 -7.04 0
v -1.92 -6.72 0
v -1.6 -6.72 0
v -1.92 -7.04 0
v -2.24 -7.04 0
v -2.24 -6.72 0
v -1.92 -6.72 0

# Texture cooridinates (Count = 30)
vt 0.8461539 0.7692308
vt 0.9230769 0.7692308
vt 0.9230769 0.8461539
vt 0.8461539 0.8461539
vt 1 0.7692308
vt 1 0.8461539
vt 0.2307692 0.3846154
vt 0.3076923 0.3846154
vt 0.3076923 0.4615384
vt 0.2307692 0.4615384
vt 0.3846154 0.3846154
vt 0.3846154 0.4615384
vt 0.4615385 0.3846154
vt 0.4615385 0.4615384
vt 0.8461539 0.6923077
vt 0.9230769 0.6923077
vt 1 0.6923077
vt 0.2307692 0.3076923
vt 0.3076923 0.3076923
vt 0.3846154 0.3076923
vt 0.4615385 0.3076923
vt 0.5384616 0.3846154
vt 0.5384616 0.4615384
vt 0.6153846 0.3846154
vt 0.6153846 0.4615384
vt 0.6923077 0.3846154
vt 0.6923077 0.4615384
vt 0.5384616 0.3076923
vt 0.6153846 0.3076923
vt 0.6923077 0.3076923

# Normal
vn 0 0 -1

# Mesh description
g Map_third_mesh_0005

# Faces
f 1/1/1 2/2/1 3/3/1 4/4/1
f 5/2/1 6/5/1 7/6/1 8/3/1
f 9/7/1 10/8/1 11/9/1 12/10/1
f 13/8/1 14/11/1 15/12/1 16/9/1
f 17/11/1 18/13/1 19/14/1 20/12/1
f 21/7/1 22/8/1 23/9/1 24/10/1
f 25/8/1 26/11/1 27/12/1 28/9/1
f 29/11/1 30/13/1 31/14/1 32/12/1
f 33/15/1 34/16/1 35/2/1 36/1/1
f 37/16/1 38/17/1 39/5/1 40/2/1
f 41/18/1 42/19/1 43/8/1 44/7/1
f 45/19/1 46/20/1 47/11/1 48/8/1
f 49/20/1 50/21/1 51/13/1 52/11/1
f 53/13/1 54/22/1 55/23/1 56/14/1
f 57/22/1 58/24/1 59/25/1 60/23/1
f 61/24/1 62/26/1 63/27/1 64/25/1
f 65/18/1 66/19/1 67/8/1 68/7/1
f 69/19/1 70/20/1 71/11/1 72/8/1
f 73/20/1 74/21/1 75/13/1 76/11/1
f 77/1/1 78/2/1 79/3/1 80/4/1
f 81/2/1 82/5/1 83/6/1 84/3/1
f 85/21/1 86/28/1 87/22/1 88/13/1
f 89/28/1 90/29/1 91/24/1 92/22/1
f 93/29/1 94/30/1 95/26/1 96/24/1
f 97/15/1 98/16/1 99/2/1 100/1/1
f 101/16/1 102/17/1 103/5/1 104/2/1
f 105/1/1 106/2/1 107/3/1 108/4/1
f 109/2/1 110/5/1 111/6/1 112/3/1
f 113/13/1 114/22/1 115/23/1 116/14/1
f 117/22/1 118/24/1 119/25/1 120/23/1
f 121/24/1 122/26/1 123/27/1 124/25/1
f 125/15/1 126/16/1 127/2/1 128/1/1
f 129/16/1 130/17/1 131/5/1 132/2/1
f 133/21/1 134/28/1 135/22/1 136/13/1
f 137/28/1 138/29/1 139/24/1 140/22/1
f 141/29/1 142/30/1 143/26/1 144/24/1
f 145/13/1 146/22/1 147/23/1 148/14/1
f 149/22/1 150/24/1 151/25/1 152/23/1
f 153/24/1 154/26/1 155/27/1 156/25/1
f 157/7/1 158/8/1 159/9/1 160/10/1
f 161/8/1 162/11/1 163/12/1 164/9/1
f 165/11/1 166/13/1 167/14/1 168/12/1
f 169/13/1 170/22/1 171/23/1 172/14/1
f 173/22/1 174/24/1 175/25/1 176/23/1
f 177/24/1 178/26/1 179/27/1 180/25/1
f 181/21/1 182/28/1 183/22/1 184/13/1
f 185/28/1 186/29/1 187/24/1 188/22/1
f 189/29/1 190/30/1 191/26/1 192/24/1
f 193/18/1 194/19/1 195/8/1 196/7/1
f 197/19/1 198/20/1 199/11/1 200/8/1
f 201/20/1 202/21/1 203/13/1 204/11/1
f 205/21/1 206/28/1 207/22/1 208/13/1
f 209/28/1 210/29/1 211/24/1 212/22/1
f 213/29/1 214/30/1 215/26/1 216/24/1
f 217/7/1 218/8/1 219/9/1 220/10/1
f 221/8/1 222/11/1 223/12/1 224/9/1
f 225/11/1 226/13/1 227/14/1 228/12/1
f 229/18/1 230/19/1 231/8/1 232/7/1
f 233/19/1 234/20/1 235/11/1 236/8/1
f 237/20/1 238/21/1 239/13/1 240/11/1

